ISO-10303-21;
HEADER;
/* Generated by software containing ST-Developer
 * from STEP Tools, Inc. (www.steptools.com) 
 */
/* OPTION: using custom renumber hook */

FILE_DESCRIPTION(
/* description */ ('STEP AP242 Edition 2',
'CAx-IF Rec.Pracs.---Representation and Presentation of Product Manufa
cturing Information (PMI)---4.0---2014-10-13',
'CAx-IF Rec.Pracs.---3D Tessellated Geometry---0.4---2014-09-14','2;1',
'CAx-IF Rec.Pracs.---User Defined Attributes---1.5---2016-08-15'),
/* implementation_level */ '2;1');

FILE_NAME(
/* name */ 'Part Studio 2 - Part 2',
/* time_stamp */ '2026-09-27T12:16:00Z',
/* author */ (''),
/* organization */ (''),
/* preprocessor_version */ 'ST-DEVELOPER v20',
/* originating_system */ 'ONSHAPE BY PTC INC, 1.221',
/* authorisation */ '  ');

FILE_SCHEMA (('AP242_MANAGED_MODEL_BASED_3D_ENGINEERING_MIM_LF { 1 0 10303 442 3 1 4 }'));
ENDSEC;

DATA;
#10=SHAPE_REPRESENTATION_RELATIONSHIP('','',#258,#11);
#11=ADVANCED_BREP_SHAPE_REPRESENTATION('',(#256),#402);
#12=CIRCLE('',#262,0.003048);
#13=CIRCLE('',#263,0.003048);
#14=CIRCLE('',#266,0.003048);
#15=CIRCLE('',#267,0.003048);
#16=CIRCLE('',#270,0.003048);
#17=CIRCLE('',#271,0.003048);
#18=CIRCLE('',#274,0.003048);
#19=CIRCLE('',#275,0.003048);
#20=CIRCLE('',#277,0.00635);
#21=CIRCLE('',#280,0.00635);
#22=CYLINDRICAL_SURFACE('',#261,0.003048);
#23=CYLINDRICAL_SURFACE('',#265,0.003048);
#24=CYLINDRICAL_SURFACE('',#269,0.003048);
#25=CYLINDRICAL_SURFACE('',#273,0.003048);
#26=CYLINDRICAL_SURFACE('',#279,0.00635);
#27=ORIENTED_EDGE('',*,*,#79,.F.);
#28=ORIENTED_EDGE('',*,*,#80,.F.);
#29=ORIENTED_EDGE('',*,*,#81,.T.);
#30=ORIENTED_EDGE('',*,*,#82,.T.);
#31=ORIENTED_EDGE('',*,*,#83,.T.);
#32=ORIENTED_EDGE('',*,*,#84,.F.);
#33=ORIENTED_EDGE('',*,*,#85,.F.);
#34=ORIENTED_EDGE('',*,*,#80,.T.);
#35=ORIENTED_EDGE('',*,*,#86,.F.);
#36=ORIENTED_EDGE('',*,*,#87,.F.);
#37=ORIENTED_EDGE('',*,*,#88,.T.);
#38=ORIENTED_EDGE('',*,*,#84,.T.);
#39=ORIENTED_EDGE('',*,*,#89,.T.);
#40=ORIENTED_EDGE('',*,*,#90,.F.);
#41=ORIENTED_EDGE('',*,*,#91,.F.);
#42=ORIENTED_EDGE('',*,*,#87,.T.);
#43=ORIENTED_EDGE('',*,*,#92,.T.);
#44=ORIENTED_EDGE('',*,*,#93,.F.);
#45=ORIENTED_EDGE('',*,*,#94,.F.);
#46=ORIENTED_EDGE('',*,*,#90,.T.);
#47=ORIENTED_EDGE('',*,*,#95,.T.);
#48=ORIENTED_EDGE('',*,*,#96,.F.);
#49=ORIENTED_EDGE('',*,*,#97,.F.);
#50=ORIENTED_EDGE('',*,*,#93,.T.);
#51=ORIENTED_EDGE('',*,*,#98,.T.);
#52=ORIENTED_EDGE('',*,*,#99,.F.);
#53=ORIENTED_EDGE('',*,*,#100,.F.);
#54=ORIENTED_EDGE('',*,*,#96,.T.);
#55=ORIENTED_EDGE('',*,*,#101,.T.);
#56=ORIENTED_EDGE('',*,*,#82,.F.);
#57=ORIENTED_EDGE('',*,*,#102,.F.);
#58=ORIENTED_EDGE('',*,*,#99,.T.);
#59=ORIENTED_EDGE('',*,*,#103,.F.);
#60=ORIENTED_EDGE('',*,*,#81,.F.);
#61=ORIENTED_EDGE('',*,*,#85,.T.);
#62=ORIENTED_EDGE('',*,*,#88,.F.);
#63=ORIENTED_EDGE('',*,*,#91,.T.);
#64=ORIENTED_EDGE('',*,*,#94,.T.);
#65=ORIENTED_EDGE('',*,*,#97,.T.);
#66=ORIENTED_EDGE('',*,*,#100,.T.);
#67=ORIENTED_EDGE('',*,*,#102,.T.);
#68=ORIENTED_EDGE('',*,*,#79,.T.);
#69=ORIENTED_EDGE('',*,*,#101,.F.);
#70=ORIENTED_EDGE('',*,*,#98,.F.);
#71=ORIENTED_EDGE('',*,*,#95,.F.);
#72=ORIENTED_EDGE('',*,*,#92,.F.);
#73=ORIENTED_EDGE('',*,*,#89,.F.);
#74=ORIENTED_EDGE('',*,*,#86,.T.);
#75=ORIENTED_EDGE('',*,*,#83,.F.);
#76=ORIENTED_EDGE('',*,*,#104,.F.);
#77=ORIENTED_EDGE('',*,*,#103,.T.);
#78=ORIENTED_EDGE('',*,*,#104,.T.);
#79=EDGE_CURVE('',#105,#106,#123,.T.);
#80=EDGE_CURVE('',#107,#105,#124,.T.);
#81=EDGE_CURVE('',#107,#108,#125,.T.);
#82=EDGE_CURVE('',#108,#106,#126,.T.);
#83=EDGE_CURVE('',#105,#109,#12,.T.);
#84=EDGE_CURVE('',#110,#109,#127,.T.);
#85=EDGE_CURVE('',#107,#110,#13,.T.);
#86=EDGE_CURVE('',#111,#109,#128,.T.);
#87=EDGE_CURVE('',#112,#111,#129,.T.);
#88=EDGE_CURVE('',#112,#110,#130,.T.);
#89=EDGE_CURVE('',#111,#113,#14,.T.);
#90=EDGE_CURVE('',#114,#113,#131,.T.);
#91=EDGE_CURVE('',#112,#114,#15,.T.);
#92=EDGE_CURVE('',#113,#115,#132,.T.);
#93=EDGE_CURVE('',#116,#115,#133,.T.);
#94=EDGE_CURVE('',#114,#116,#134,.T.);
#95=EDGE_CURVE('',#115,#117,#16,.T.);
#96=EDGE_CURVE('',#118,#117,#135,.T.);
#97=EDGE_CURVE('',#116,#118,#17,.T.);
#98=EDGE_CURVE('',#117,#119,#136,.T.);
#99=EDGE_CURVE('',#120,#119,#137,.T.);
#100=EDGE_CURVE('',#118,#120,#138,.T.);
#101=EDGE_CURVE('',#119,#106,#18,.T.);
#102=EDGE_CURVE('',#120,#108,#19,.T.);
#103=EDGE_CURVE('',#121,#121,#20,.T.);
#104=EDGE_CURVE('',#122,#122,#21,.T.);
#105=VERTEX_POINT('',#347);
#106=VERTEX_POINT('',#348);
#107=VERTEX_POINT('',#350);
#108=VERTEX_POINT('',#352);
#109=VERTEX_POINT('',#356);
#110=VERTEX_POINT('',#358);
#111=VERTEX_POINT('',#362);
#112=VERTEX_POINT('',#364);
#113=VERTEX_POINT('',#368);
#114=VERTEX_POINT('',#370);
#115=VERTEX_POINT('',#374);
#116=VERTEX_POINT('',#376);
#117=VERTEX_POINT('',#380);
#118=VERTEX_POINT('',#382);
#119=VERTEX_POINT('',#386);
#120=VERTEX_POINT('',#388);
#121=VERTEX_POINT('',#395);
#122=VERTEX_POINT('',#399);
#123=LINE('',#346,#139);
#124=LINE('',#349,#140);
#125=LINE('',#351,#141);
#126=LINE('',#353,#142);
#127=LINE('',#357,#143);
#128=LINE('',#361,#144);
#129=LINE('',#363,#145);
#130=LINE('',#365,#146);
#131=LINE('',#369,#147);
#132=LINE('',#373,#148);
#133=LINE('',#375,#149);
#134=LINE('',#377,#150);
#135=LINE('',#381,#151);
#136=LINE('',#385,#152);
#137=LINE('',#387,#153);
#138=LINE('',#389,#154);
#139=VECTOR('',#286,1.);
#140=VECTOR('',#287,1.);
#141=VECTOR('',#288,1.);
#142=VECTOR('',#289,1.);
#143=VECTOR('',#294,1.);
#144=VECTOR('',#299,1.);
#145=VECTOR('',#300,1.);
#146=VECTOR('',#301,1.);
#147=VECTOR('',#306,1.);
#148=VECTOR('',#311,1.);
#149=VECTOR('',#312,1.);
#150=VECTOR('',#313,1.);
#151=VECTOR('',#318,1.);
#152=VECTOR('',#323,1.);
#153=VECTOR('',#324,1.);
#154=VECTOR('',#325,1.);
#155=EDGE_LOOP('',(#27,#28,#29,#30));
#156=EDGE_LOOP('',(#31,#32,#33,#34));
#157=EDGE_LOOP('',(#35,#36,#37,#38));
#158=EDGE_LOOP('',(#39,#40,#41,#42));
#159=EDGE_LOOP('',(#43,#44,#45,#46));
#160=EDGE_LOOP('',(#47,#48,#49,#50));
#161=EDGE_LOOP('',(#51,#52,#53,#54));
#162=EDGE_LOOP('',(#55,#56,#57,#58));
#163=EDGE_LOOP('',(#59));
#164=EDGE_LOOP('',(#60,#61,#62,#63,#64,#65,#66,#67));
#165=EDGE_LOOP('',(#68,#69,#70,#71,#72,#73,#74,#75));
#166=EDGE_LOOP('',(#76));
#167=EDGE_LOOP('',(#77));
#168=EDGE_LOOP('',(#78));
#169=FACE_BOUND('',#155,.T.);
#170=FACE_BOUND('',#156,.T.);
#171=FACE_BOUND('',#157,.T.);
#172=FACE_BOUND('',#158,.T.);
#173=FACE_BOUND('',#159,.T.);
#174=FACE_BOUND('',#160,.T.);
#175=FACE_BOUND('',#161,.T.);
#176=FACE_BOUND('',#162,.T.);
#177=FACE_BOUND('',#163,.T.);
#178=FACE_BOUND('',#164,.T.);
#179=FACE_BOUND('',#165,.T.);
#180=FACE_BOUND('',#166,.T.);
#181=FACE_BOUND('',#167,.T.);
#182=FACE_BOUND('',#168,.T.);
#183=PLANE('',#260);
#184=PLANE('',#264);
#185=PLANE('',#268);
#186=PLANE('',#272);
#187=PLANE('',#276);
#188=PLANE('',#278);
#189=PLANE('',#281);
#190=OVER_RIDING_STYLED_ITEM('',(#213),#198,#211);
#191=OVER_RIDING_STYLED_ITEM('',(#214),#200,#211);
#192=OVER_RIDING_STYLED_ITEM('',(#215),#202,#211);
#193=OVER_RIDING_STYLED_ITEM('',(#216),#204,#211);
#194=OVER_RIDING_STYLED_ITEM('',(#217),#206,#211);
#195=OVER_RIDING_STYLED_ITEM('',(#218),#207,#211);
#196=DRAUGHTING_PRE_DEFINED_COLOUR('blue');
#197=DRAUGHTING_PRE_DEFINED_COLOUR('black');
#198=ADVANCED_FACE('Face appearance 4',(#169),#183,.T.);
#199=ADVANCED_FACE('',(#170),#22,.T.);
#200=ADVANCED_FACE('Face appearance 4',(#171),#184,.T.);
#201=ADVANCED_FACE('',(#172),#23,.T.);
#202=ADVANCED_FACE('Face appearance 4',(#173),#185,.F.);
#203=ADVANCED_FACE('',(#174),#24,.T.);
#204=ADVANCED_FACE('Face appearance 4',(#175),#186,.F.);
#205=ADVANCED_FACE('',(#176),#25,.T.);
#206=ADVANCED_FACE('Face appearance 6',(#177,#178),#187,.T.);
#207=ADVANCED_FACE('Face appearance 2',(#179),#188,.F.);
#208=ADVANCED_FACE('',(#180,#181),#26,.T.);
#209=ADVANCED_FACE('',(#182),#189,.T.);
#210=CLOSED_SHELL('',(#198,#199,#200,#201,#202,#203,#204,#205,#206,#207,
#208,#209));
#211=STYLED_ITEM('',(#212),#256);
#212=PRESENTATION_STYLE_ASSIGNMENT((#219));
#213=PRESENTATION_STYLE_ASSIGNMENT((#220));
#214=PRESENTATION_STYLE_ASSIGNMENT((#221));
#215=PRESENTATION_STYLE_ASSIGNMENT((#222));
#216=PRESENTATION_STYLE_ASSIGNMENT((#223));
#217=PRESENTATION_STYLE_ASSIGNMENT((#224));
#218=PRESENTATION_STYLE_ASSIGNMENT((#225));
#219=SURFACE_STYLE_USAGE(.BOTH.,#226);
#220=SURFACE_STYLE_USAGE(.BOTH.,#227);
#221=SURFACE_STYLE_USAGE(.BOTH.,#228);
#222=SURFACE_STYLE_USAGE(.BOTH.,#229);
#223=SURFACE_STYLE_USAGE(.BOTH.,#230);
#224=SURFACE_STYLE_USAGE(.BOTH.,#231);
#225=SURFACE_STYLE_USAGE(.BOTH.,#232);
#226=SURFACE_SIDE_STYLE('',(#233));
#227=SURFACE_SIDE_STYLE('',(#234));
#228=SURFACE_SIDE_STYLE('',(#235));
#229=SURFACE_SIDE_STYLE('',(#236));
#230=SURFACE_SIDE_STYLE('',(#237));
#231=SURFACE_SIDE_STYLE('',(#238));
#232=SURFACE_SIDE_STYLE('',(#239));
#233=SURFACE_STYLE_FILL_AREA(#240);
#234=SURFACE_STYLE_FILL_AREA(#241);
#235=SURFACE_STYLE_FILL_AREA(#242);
#236=SURFACE_STYLE_FILL_AREA(#243);
#237=SURFACE_STYLE_FILL_AREA(#244);
#238=SURFACE_STYLE_FILL_AREA(#245);
#239=SURFACE_STYLE_FILL_AREA(#246);
#240=FILL_AREA_STYLE('',(#247));
#241=FILL_AREA_STYLE('',(#248));
#242=FILL_AREA_STYLE('',(#249));
#243=FILL_AREA_STYLE('',(#250));
#244=FILL_AREA_STYLE('',(#251));
#245=FILL_AREA_STYLE('',(#252));
#246=FILL_AREA_STYLE('',(#253));
#247=FILL_AREA_STYLE_COLOUR('',#254);
#248=FILL_AREA_STYLE_COLOUR('',#196);
#249=FILL_AREA_STYLE_COLOUR('',#196);
#250=FILL_AREA_STYLE_COLOUR('',#196);
#251=FILL_AREA_STYLE_COLOUR('',#196);
#252=FILL_AREA_STYLE_COLOUR('',#255);
#253=FILL_AREA_STYLE_COLOUR('',#197);
#254=COLOUR_RGB('',0.231372549019608,0.380392156862745,0.705882352941177);
#255=COLOUR_RGB('',1.,0.756862745098039,0.0549019607843137);
#256=MANIFOLD_SOLID_BREP('Part 2',#210);
#257=SHAPE_DEFINITION_REPRESENTATION(#407,#258);
#258=SHAPE_REPRESENTATION('Part 2',(#259),#402);
#259=AXIS2_PLACEMENT_3D('',#344,#282,#283);
#260=AXIS2_PLACEMENT_3D('',#345,#284,#285);
#261=AXIS2_PLACEMENT_3D('',#354,#290,#291);
#262=AXIS2_PLACEMENT_3D('',#355,#292,#293);
#263=AXIS2_PLACEMENT_3D('',#359,#295,#296);
#264=AXIS2_PLACEMENT_3D('',#360,#297,#298);
#265=AXIS2_PLACEMENT_3D('',#366,#302,#303);
#266=AXIS2_PLACEMENT_3D('',#367,#304,#305);
#267=AXIS2_PLACEMENT_3D('',#371,#307,#308);
#268=AXIS2_PLACEMENT_3D('',#372,#309,#310);
#269=AXIS2_PLACEMENT_3D('',#378,#314,#315);
#270=AXIS2_PLACEMENT_3D('',#379,#316,#317);
#271=AXIS2_PLACEMENT_3D('',#383,#319,#320);
#272=AXIS2_PLACEMENT_3D('',#384,#321,#322);
#273=AXIS2_PLACEMENT_3D('',#390,#326,#327);
#274=AXIS2_PLACEMENT_3D('',#391,#328,#329);
#275=AXIS2_PLACEMENT_3D('',#392,#330,#331);
#276=AXIS2_PLACEMENT_3D('',#393,#332,#333);
#277=AXIS2_PLACEMENT_3D('',#394,#334,#335);
#278=AXIS2_PLACEMENT_3D('',#396,#336,#337);
#279=AXIS2_PLACEMENT_3D('',#397,#338,#339);
#280=AXIS2_PLACEMENT_3D('',#398,#340,#341);
#281=AXIS2_PLACEMENT_3D('',#400,#342,#343);
#282=DIRECTION('',(0.,0.,1.));
#283=DIRECTION('',(1.,0.,0.));
#284=DIRECTION('',(1.,0.,0.));
#285=DIRECTION('',(0.,0.,-1.));
#286=DIRECTION('',(0.,0.,-1.));
#287=DIRECTION('',(0.,1.,0.));
#288=DIRECTION('',(0.,0.,-1.));
#289=DIRECTION('',(0.,1.,0.));
#290=DIRECTION('',(0.,1.,0.));
#291=DIRECTION('',(0.,0.,1.));
#292=DIRECTION('',(0.,-1.,0.));
#293=DIRECTION('',(1.,0.,0.));
#294=DIRECTION('',(0.,1.,0.));
#295=DIRECTION('',(0.,-1.,0.));
#296=DIRECTION('',(1.,0.,0.));
#297=DIRECTION('',(0.,0.,1.));
#298=DIRECTION('',(1.,0.,0.));
#299=DIRECTION('',(1.,0.,0.));
#300=DIRECTION('',(0.,1.,0.));
#301=DIRECTION('',(1.,0.,0.));
#302=DIRECTION('',(0.,1.,0.));
#303=DIRECTION('',(0.,0.,1.));
#304=DIRECTION('',(0.,-1.,0.));
#305=DIRECTION('',(3.41480999208034E-15,0.,1.));
#306=DIRECTION('',(0.,1.,0.));
#307=DIRECTION('',(0.,-1.,0.));
#308=DIRECTION('',(3.41480999208034E-15,0.,1.));
#309=DIRECTION('',(1.,0.,0.));
#310=DIRECTION('',(0.,0.,-1.));
#311=DIRECTION('',(0.,0.,-1.));
#312=DIRECTION('',(0.,1.,0.));
#313=DIRECTION('',(0.,0.,-1.));
#314=DIRECTION('',(0.,1.,0.));
#315=DIRECTION('',(0.,0.,1.));
#316=DIRECTION('',(0.,-1.,0.));
#317=DIRECTION('',(-1.,0.,0.));
#318=DIRECTION('',(0.,1.,0.));
#319=DIRECTION('',(0.,-1.,0.));
#320=DIRECTION('',(-1.,0.,0.));
#321=DIRECTION('',(0.,0.,1.));
#322=DIRECTION('',(1.,0.,0.));
#323=DIRECTION('',(1.,0.,0.));
#324=DIRECTION('',(0.,1.,0.));
#325=DIRECTION('',(1.,0.,0.));
#326=DIRECTION('',(0.,1.,0.));
#327=DIRECTION('',(0.,0.,1.));
#328=DIRECTION('',(0.,-1.,0.));
#329=DIRECTION('',(1.70740499604016E-15,0.,-1.));
#330=DIRECTION('',(0.,-1.,0.));
#331=DIRECTION('',(1.70740499604016E-15,0.,-1.));
#332=DIRECTION('',(0.,-1.,0.));
#333=DIRECTION('',(1.,0.,0.));
#334=DIRECTION('',(0.,-1.,0.));
#335=DIRECTION('',(1.,0.,0.));
#336=DIRECTION('',(0.,-1.,0.));
#337=DIRECTION('',(1.,0.,0.));
#338=DIRECTION('',(0.,1.,0.));
#339=DIRECTION('',(0.,0.,1.));
#340=DIRECTION('',(0.,-1.,0.));
#341=DIRECTION('',(1.,0.,0.));
#342=DIRECTION('',(0.,-1.,0.));
#343=DIRECTION('',(1.,0.,0.));
#344=CARTESIAN_POINT('',(0.,0.,0.));
#345=CARTESIAN_POINT('',(-0.00837945162891748,-0.00762,0.0268424923316281));
#346=CARTESIAN_POINT('',(-0.00837945162891748,0.,0.0268424923316281));
#347=CARTESIAN_POINT('',(-0.00837945162891748,0.,0.0330617538006847));
#348=CARTESIAN_POINT('',(-0.00837945162891748,0.,0.0206232308625715));
#349=CARTESIAN_POINT('',(-0.00837945162891748,-0.00762,0.0330617538006847));
#350=CARTESIAN_POINT('',(-0.00837945162891748,-0.00762,0.0330617538006847));
#351=CARTESIAN_POINT('',(-0.00837945162891748,-0.00762,0.0268424923316281));
#352=CARTESIAN_POINT('',(-0.00837945162891748,-0.00762,0.0206232308625715));
#353=CARTESIAN_POINT('',(-0.00837945162891748,-0.00762,0.0206232308625715));
#354=CARTESIAN_POINT('',(-0.0114274516289175,-0.00762,0.0330617538006847));
#355=CARTESIAN_POINT('',(-0.0114274516289175,0.,0.0330617538006847));
#356=CARTESIAN_POINT('',(-0.0114274516289175,0.,0.0361097538006847));
#357=CARTESIAN_POINT('',(-0.0114274516289175,-0.00762,0.0361097538006847));
#358=CARTESIAN_POINT('',(-0.0114274516289175,-0.00762,0.0361097538006847));
#359=CARTESIAN_POINT('',(-0.0114274516289175,-0.00762,0.0330617538006847));
#360=CARTESIAN_POINT('',(-0.0176467130979741,-0.00762,0.0361097538006847));
#361=CARTESIAN_POINT('',(-0.0176467130979741,0.,0.0361097538006847));
#362=CARTESIAN_POINT('',(-0.0238659745670307,0.,0.0361097538006847));
#363=CARTESIAN_POINT('',(-0.0238659745670307,-0.00762,0.0361097538006847));
#364=CARTESIAN_POINT('',(-0.0238659745670307,-0.00762,0.0361097538006847));
#365=CARTESIAN_POINT('',(-0.0176467130979741,-0.00762,0.0361097538006847));
#366=CARTESIAN_POINT('',(-0.0238659745670307,-0.00762,0.0330617538006847));
#367=CARTESIAN_POINT('',(-0.0238659745670307,0.,0.0330617538006847));
#368=CARTESIAN_POINT('',(-0.0269139745670306,0.,0.0330617538006846));
#369=CARTESIAN_POINT('',(-0.0269139745670306,-0.00762,0.0330617538006846));
#370=CARTESIAN_POINT('',(-0.0269139745670306,-0.00762,0.0330617538006846));
#371=CARTESIAN_POINT('',(-0.0238659745670307,-0.00762,0.0330617538006847));
#372=CARTESIAN_POINT('',(-0.0269139745670306,-0.00762,0.0268424923316281));
#373=CARTESIAN_POINT('',(-0.0269139745670306,0.,0.0268424923316281));
#374=CARTESIAN_POINT('',(-0.0269139745670306,0.,0.0206232308625715));
#375=CARTESIAN_POINT('',(-0.0269139745670306,-0.00762,0.0206232308625715));
#376=CARTESIAN_POINT('',(-0.0269139745670306,-0.00762,0.0206232308625715));
#377=CARTESIAN_POINT('',(-0.0269139745670306,-0.00762,0.0268424923316281));
#378=CARTESIAN_POINT('',(-0.0238659745670306,-0.00762,0.0206232308625715));
#379=CARTESIAN_POINT('',(-0.0238659745670306,0.,0.0206232308625715));
#380=CARTESIAN_POINT('',(-0.0238659745670306,0.,0.0175752308625715));
#381=CARTESIAN_POINT('',(-0.0238659745670306,-0.00762,0.0175752308625715));
#382=CARTESIAN_POINT('',(-0.0238659745670306,-0.00762,0.0175752308625715));
#383=CARTESIAN_POINT('',(-0.0238659745670306,-0.00762,0.0206232308625715));
#384=CARTESIAN_POINT('',(-0.0176467130979741,-0.00762,0.0175752308625715));
#385=CARTESIAN_POINT('',(-0.0176467130979741,0.,0.0175752308625715));
#386=CARTESIAN_POINT('',(-0.0114274516289175,0.,0.0175752308625715));
#387=CARTESIAN_POINT('',(-0.0114274516289175,-0.00762,0.0175752308625715));
#388=CARTESIAN_POINT('',(-0.0114274516289175,-0.00762,0.0175752308625715));
#389=CARTESIAN_POINT('',(-0.0176467130979741,-0.00762,0.0175752308625715));
#390=CARTESIAN_POINT('',(-0.0114274516289175,-0.00762,0.0206232308625715));
#391=CARTESIAN_POINT('',(-0.0114274516289175,0.,0.0206232308625715));
#392=CARTESIAN_POINT('',(-0.0114274516289175,-0.00762,0.0206232308625715));
#393=CARTESIAN_POINT('',(0.00301800483967418,-0.00762,0.0271009605574449));
#394=CARTESIAN_POINT('',(-0.0176467130979741,-0.00762,0.0268424923316281));
#395=CARTESIAN_POINT('',(-0.0112967130979741,-0.00762,0.0268424923316281));
#396=CARTESIAN_POINT('',(0.00301800483967418,0.,0.0271009605574449));
#397=CARTESIAN_POINT('',(-0.0176467130979741,-0.008128,0.0268424923316281));
#398=CARTESIAN_POINT('',(-0.0176467130979741,-0.008128,0.0268424923316281));
#399=CARTESIAN_POINT('',(-0.0112967130979741,-0.008128,0.0268424923316281));
#400=CARTESIAN_POINT('',(-0.0176467130979741,-0.008128,0.0268424923316281));
#401=MECHANICAL_DESIGN_GEOMETRIC_PRESENTATION_REPRESENTATION('',(#211,#190,
#191,#192,#193,#194,#195),#402);
#402=(
GEOMETRIC_REPRESENTATION_CONTEXT(3)
GLOBAL_UNCERTAINTY_ASSIGNED_CONTEXT((#403))
GLOBAL_UNIT_ASSIGNED_CONTEXT((#406,#405,#404))
REPRESENTATION_CONTEXT('Part 2','TOP_LEVEL_ASSEMBLY_PART')
);
#403=UNCERTAINTY_MEASURE_WITH_UNIT(LENGTH_MEASURE(1.E-8),#406,
'DISTANCE_ACCURACY_VALUE','Maximum Tolerance applied to model');
#404=(
NAMED_UNIT(*)
SI_UNIT($,.STERADIAN.)
SOLID_ANGLE_UNIT()
);
#405=(
NAMED_UNIT(*)
PLANE_ANGLE_UNIT()
SI_UNIT($,.RADIAN.)
);
#406=(
LENGTH_UNIT()
NAMED_UNIT(*)
SI_UNIT($,.METRE.)
);
#407=PRODUCT_DEFINITION_SHAPE('','',#408);
#408=PRODUCT_DEFINITION('','',#410,#409);
#409=PRODUCT_DEFINITION_CONTEXT('',#416,'design');
#410=PRODUCT_DEFINITION_FORMATION_WITH_SPECIFIED_SOURCE('','',#412,
 .NOT_KNOWN.);
#411=PRODUCT_RELATED_PRODUCT_CATEGORY('','',(#412));
#412=PRODUCT('Part 2','Part 2','Part 2',(#414));
#413=PRODUCT_CATEGORY('','');
#414=PRODUCT_CONTEXT('',#416,'mechanical');
#415=APPLICATION_PROTOCOL_DEFINITION('international standard',
'ap242_managed_model_based_3d_engineering',2020,#416);
#416=APPLICATION_CONTEXT('managed model based 3d engineering');
ENDSEC;
END-ISO-10303-21;
