ISO-10303-21;
HEADER;
/* Generated by software containing ST-Developer
 * from STEP Tools, Inc. (www.steptools.com) 
 */
/* OPTION: using custom renumber hook */

FILE_DESCRIPTION(
/* description */ ('STEP AP242 Edition 2',
'CAx-IF Rec.Pracs.---Representation and Presentation of Product Manufa
cturing Information (PMI)---4.0---2014-10-13',
'CAx-IF Rec.Pracs.---3D Tessellated Geometry---0.4---2014-09-14','2;1',
'CAx-IF Rec.Pracs.---User Defined Attributes---1.5---2016-08-15'),
/* implementation_level */ '2;1');

FILE_NAME(
/* name */ 'Part Studio 3 - Part 1',
/* time_stamp */ '2026-09-27T12:12:20Z',
/* author */ (''),
/* organization */ (''),
/* preprocessor_version */ 'ST-DEVELOPER v20',
/* originating_system */ 'ONSHAPE BY PTC INC, 1.221',
/* authorisation */ '  ');

FILE_SCHEMA (('AP242_MANAGED_MODEL_BASED_3D_ENGINEERING_MIM_LF { 1 0 10303 442 3 1 4 }'));
ENDSEC;

DATA;
#10=SHAPE_REPRESENTATION_RELATIONSHIP('','',#176,#11);
#11=ADVANCED_BREP_SHAPE_REPRESENTATION('',(#174),#278);
#12=CIRCLE('',#183,0.002);
#13=CIRCLE('',#184,0.002);
#14=CIRCLE('',#187,0.002);
#15=CIRCLE('',#188,0.002);
#16=CYLINDRICAL_SURFACE('',#182,0.002);
#17=CYLINDRICAL_SURFACE('',#186,0.002);
#18=ORIENTED_EDGE('',*,*,#56,.F.);
#19=ORIENTED_EDGE('',*,*,#57,.F.);
#20=ORIENTED_EDGE('',*,*,#58,.T.);
#21=ORIENTED_EDGE('',*,*,#59,.T.);
#22=ORIENTED_EDGE('',*,*,#60,.F.);
#23=ORIENTED_EDGE('',*,*,#61,.F.);
#24=ORIENTED_EDGE('',*,*,#62,.T.);
#25=ORIENTED_EDGE('',*,*,#57,.T.);
#26=ORIENTED_EDGE('',*,*,#63,.T.);
#27=ORIENTED_EDGE('',*,*,#64,.F.);
#28=ORIENTED_EDGE('',*,*,#65,.F.);
#29=ORIENTED_EDGE('',*,*,#61,.T.);
#30=ORIENTED_EDGE('',*,*,#66,.F.);
#31=ORIENTED_EDGE('',*,*,#67,.F.);
#32=ORIENTED_EDGE('',*,*,#68,.T.);
#33=ORIENTED_EDGE('',*,*,#64,.T.);
#34=ORIENTED_EDGE('',*,*,#69,.T.);
#35=ORIENTED_EDGE('',*,*,#70,.F.);
#36=ORIENTED_EDGE('',*,*,#71,.F.);
#37=ORIENTED_EDGE('',*,*,#59,.F.);
#38=ORIENTED_EDGE('',*,*,#72,.T.);
#39=ORIENTED_EDGE('',*,*,#67,.T.);
#40=ORIENTED_EDGE('',*,*,#73,.T.);
#41=ORIENTED_EDGE('',*,*,#74,.F.);
#42=ORIENTED_EDGE('',*,*,#58,.F.);
#43=ORIENTED_EDGE('',*,*,#62,.F.);
#44=ORIENTED_EDGE('',*,*,#65,.T.);
#45=ORIENTED_EDGE('',*,*,#68,.F.);
#46=ORIENTED_EDGE('',*,*,#72,.F.);
#47=ORIENTED_EDGE('',*,*,#69,.F.);
#48=ORIENTED_EDGE('',*,*,#73,.F.);
#49=ORIENTED_EDGE('',*,*,#56,.T.);
#50=ORIENTED_EDGE('',*,*,#71,.T.);
#51=ORIENTED_EDGE('',*,*,#66,.T.);
#52=ORIENTED_EDGE('',*,*,#63,.F.);
#53=ORIENTED_EDGE('',*,*,#60,.T.);
#54=ORIENTED_EDGE('',*,*,#70,.T.);
#55=ORIENTED_EDGE('',*,*,#74,.T.);
#56=EDGE_CURVE('',#75,#76,#89,.T.);
#57=EDGE_CURVE('',#77,#75,#90,.T.);
#58=EDGE_CURVE('',#77,#78,#91,.T.);
#59=EDGE_CURVE('',#78,#76,#92,.T.);
#60=EDGE_CURVE('',#79,#75,#93,.T.);
#61=EDGE_CURVE('',#80,#79,#94,.T.);
#62=EDGE_CURVE('',#80,#77,#95,.T.);
#63=EDGE_CURVE('',#79,#81,#96,.T.);
#64=EDGE_CURVE('',#82,#81,#97,.T.);
#65=EDGE_CURVE('',#80,#82,#98,.T.);
#66=EDGE_CURVE('',#83,#81,#99,.T.);
#67=EDGE_CURVE('',#84,#83,#100,.T.);
#68=EDGE_CURVE('',#84,#82,#101,.T.);
#69=EDGE_CURVE('',#85,#85,#12,.T.);
#70=EDGE_CURVE('',#86,#86,#13,.T.);
#71=EDGE_CURVE('',#76,#83,#102,.T.);
#72=EDGE_CURVE('',#78,#84,#103,.T.);
#73=EDGE_CURVE('',#87,#87,#14,.T.);
#74=EDGE_CURVE('',#88,#88,#15,.T.);
#75=VERTEX_POINT('',#237);
#76=VERTEX_POINT('',#238);
#77=VERTEX_POINT('',#240);
#78=VERTEX_POINT('',#242);
#79=VERTEX_POINT('',#246);
#80=VERTEX_POINT('',#248);
#81=VERTEX_POINT('',#252);
#82=VERTEX_POINT('',#254);
#83=VERTEX_POINT('',#258);
#84=VERTEX_POINT('',#260);
#85=VERTEX_POINT('',#264);
#86=VERTEX_POINT('',#266);
#87=VERTEX_POINT('',#272);
#88=VERTEX_POINT('',#274);
#89=LINE('',#236,#104);
#90=LINE('',#239,#105);
#91=LINE('',#241,#106);
#92=LINE('',#243,#107);
#93=LINE('',#245,#108);
#94=LINE('',#247,#109);
#95=LINE('',#249,#110);
#96=LINE('',#251,#111);
#97=LINE('',#253,#112);
#98=LINE('',#255,#113);
#99=LINE('',#257,#114);
#100=LINE('',#259,#115);
#101=LINE('',#261,#116);
#102=LINE('',#268,#117);
#103=LINE('',#269,#118);
#104=VECTOR('',#195,1.);
#105=VECTOR('',#196,1.);
#106=VECTOR('',#197,1.);
#107=VECTOR('',#198,1.);
#108=VECTOR('',#201,1.);
#109=VECTOR('',#202,1.);
#110=VECTOR('',#203,1.);
#111=VECTOR('',#206,1.);
#112=VECTOR('',#207,1.);
#113=VECTOR('',#208,1.);
#114=VECTOR('',#211,1.);
#115=VECTOR('',#212,1.);
#116=VECTOR('',#213,1.);
#117=VECTOR('',#222,1.);
#118=VECTOR('',#223,1.);
#119=EDGE_LOOP('',(#18,#19,#20,#21));
#120=EDGE_LOOP('',(#22,#23,#24,#25));
#121=EDGE_LOOP('',(#26,#27,#28,#29));
#122=EDGE_LOOP('',(#30,#31,#32,#33));
#123=EDGE_LOOP('',(#34));
#124=EDGE_LOOP('',(#35));
#125=EDGE_LOOP('',(#36,#37,#38,#39));
#126=EDGE_LOOP('',(#40));
#127=EDGE_LOOP('',(#41));
#128=EDGE_LOOP('',(#42,#43,#44,#45,#46));
#129=EDGE_LOOP('',(#47));
#130=EDGE_LOOP('',(#48));
#131=EDGE_LOOP('',(#49,#50,#51,#52,#53));
#132=EDGE_LOOP('',(#54));
#133=EDGE_LOOP('',(#55));
#134=FACE_BOUND('',#119,.T.);
#135=FACE_BOUND('',#120,.T.);
#136=FACE_BOUND('',#121,.T.);
#137=FACE_BOUND('',#122,.T.);
#138=FACE_BOUND('',#123,.T.);
#139=FACE_BOUND('',#124,.T.);
#140=FACE_BOUND('',#125,.T.);
#141=FACE_BOUND('',#126,.T.);
#142=FACE_BOUND('',#127,.T.);
#143=FACE_BOUND('',#128,.T.);
#144=FACE_BOUND('',#129,.T.);
#145=FACE_BOUND('',#130,.T.);
#146=FACE_BOUND('',#131,.T.);
#147=FACE_BOUND('',#132,.T.);
#148=FACE_BOUND('',#133,.T.);
#149=PLANE('',#178);
#150=PLANE('',#179);
#151=PLANE('',#180);
#152=PLANE('',#181);
#153=PLANE('',#185);
#154=PLANE('',#189);
#155=PLANE('',#190);
#156=ADVANCED_FACE('',(#134),#149,.T.);
#157=ADVANCED_FACE('',(#135),#150,.T.);
#158=ADVANCED_FACE('',(#136),#151,.F.);
#159=ADVANCED_FACE('',(#137),#152,.T.);
#160=ADVANCED_FACE('',(#138,#139),#16,.F.);
#161=ADVANCED_FACE('',(#140),#153,.T.);
#162=ADVANCED_FACE('',(#141,#142),#17,.F.);
#163=ADVANCED_FACE('',(#143,#144,#145),#154,.T.);
#164=ADVANCED_FACE('',(#146,#147,#148),#155,.F.);
#165=CLOSED_SHELL('',(#156,#157,#158,#159,#160,#161,#162,#163,#164));
#166=STYLED_ITEM('',(#167),#174);
#167=PRESENTATION_STYLE_ASSIGNMENT((#168));
#168=SURFACE_STYLE_USAGE(.BOTH.,#169);
#169=SURFACE_SIDE_STYLE('',(#170));
#170=SURFACE_STYLE_FILL_AREA(#171);
#171=FILL_AREA_STYLE('',(#172));
#172=FILL_AREA_STYLE_COLOUR('',#173);
#173=COLOUR_RGB('',0.372549019607843,0.654901960784314,0.23921568627451);
#174=MANIFOLD_SOLID_BREP('Part 1',#165);
#175=SHAPE_DEFINITION_REPRESENTATION(#283,#176);
#176=SHAPE_REPRESENTATION('Part 1',(#177),#278);
#177=AXIS2_PLACEMENT_3D('',#234,#191,#192);
#178=AXIS2_PLACEMENT_3D('',#235,#193,#194);
#179=AXIS2_PLACEMENT_3D('',#244,#199,#200);
#180=AXIS2_PLACEMENT_3D('',#250,#204,#205);
#181=AXIS2_PLACEMENT_3D('',#256,#209,#210);
#182=AXIS2_PLACEMENT_3D('',#262,#214,#215);
#183=AXIS2_PLACEMENT_3D('',#263,#216,#217);
#184=AXIS2_PLACEMENT_3D('',#265,#218,#219);
#185=AXIS2_PLACEMENT_3D('',#267,#220,#221);
#186=AXIS2_PLACEMENT_3D('',#270,#224,#225);
#187=AXIS2_PLACEMENT_3D('',#271,#226,#227);
#188=AXIS2_PLACEMENT_3D('',#273,#228,#229);
#189=AXIS2_PLACEMENT_3D('',#275,#230,#231);
#190=AXIS2_PLACEMENT_3D('',#276,#232,#233);
#191=DIRECTION('',(0.,0.,1.));
#192=DIRECTION('',(1.,0.,0.));
#193=DIRECTION('',(-0.707106781186548,0.,0.707106781186548));
#194=DIRECTION('',(0.707106781186548,0.,0.707106781186548));
#195=DIRECTION('',(0.707106781186548,0.,0.707106781186548));
#196=DIRECTION('',(0.,1.,0.));
#197=DIRECTION('',(0.707106781186548,0.,0.707106781186548));
#198=DIRECTION('',(0.,1.,0.));
#199=DIRECTION('',(-0.985744048157598,0.,-0.168251809862098));
#200=DIRECTION('',(-0.168251809862098,0.,0.985744048157598));
#201=DIRECTION('',(-0.168251809862098,0.,0.985744048157598));
#202=DIRECTION('',(0.,1.,0.));
#203=DIRECTION('',(-0.168251809862098,0.,0.985744048157598));
#204=DIRECTION('',(0.168251809862099,0.,0.985744048157597));
#205=DIRECTION('',(0.985744048157598,0.,-0.168251809862099));
#206=DIRECTION('',(0.985744048157598,0.,-0.168251809862099));
#207=DIRECTION('',(0.,1.,0.));
#208=DIRECTION('',(0.985744048157598,0.,-0.168251809862099));
#209=DIRECTION('',(0.707106781186548,0.,-0.707106781186548));
#210=DIRECTION('',(-0.707106781186548,0.,-0.707106781186548));
#211=DIRECTION('',(-0.707106781186548,0.,-0.707106781186548));
#212=DIRECTION('',(0.,1.,0.));
#213=DIRECTION('',(-0.707106781186548,0.,-0.707106781186548));
#214=DIRECTION('',(0.,1.,0.));
#215=DIRECTION('',(0.,0.,1.));
#216=DIRECTION('',(0.,-1.,0.));
#217=DIRECTION('',(1.,0.,0.));
#218=DIRECTION('',(0.,-1.,0.));
#219=DIRECTION('',(1.,0.,0.));
#220=DIRECTION('',(0.707106781186546,0.,0.707106781186549));
#221=DIRECTION('',(0.707106781186549,0.,-0.707106781186546));
#222=DIRECTION('',(0.707106781186549,0.,-0.707106781186546));
#223=DIRECTION('',(0.707106781186549,0.,-0.707106781186546));
#224=DIRECTION('',(0.,1.,0.));
#225=DIRECTION('',(0.,0.,1.));
#226=DIRECTION('',(0.,-1.,0.));
#227=DIRECTION('',(1.,0.,0.));
#228=DIRECTION('',(0.,-1.,0.));
#229=DIRECTION('',(1.,0.,0.));
#230=DIRECTION('',(0.,-1.,0.));
#231=DIRECTION('',(1.,0.,0.));
#232=DIRECTION('',(0.,-1.,0.));
#233=DIRECTION('',(1.,0.,0.));
#234=CARTESIAN_POINT('',(0.,0.,0.));
#235=CARTESIAN_POINT('',(-0.00156405299329631,-0.0256286785428537,0.0352999058693353));
#236=CARTESIAN_POINT('',(-0.00156405299329631,-0.0216286785428537,0.0352999058693353));
#237=CARTESIAN_POINT('',(-0.0381400529932963,-0.0216286785428537,-0.00127609413066477));
#238=CARTESIAN_POINT('',(0.0350119470067037,-0.0216286785428537,0.0718759058693352));
#239=CARTESIAN_POINT('',(-0.0381400529932963,-0.0256286785428537,-0.00127609413066477));
#240=CARTESIAN_POINT('',(-0.0381400529932963,-0.0256286785428537,-0.00127609413066477));
#241=CARTESIAN_POINT('',(-0.00156405299329631,-0.0256286785428537,0.0352999058693353));
#242=CARTESIAN_POINT('',(0.0350119470067037,-0.0256286785428537,0.0718759058693352));
#243=CARTESIAN_POINT('',(0.0350119470067037,-0.0256286785428537,0.0718759058693352));
#244=CARTESIAN_POINT('',(-0.0379178548316236,-0.0256286785428537,-0.00257789596899211));
#245=CARTESIAN_POINT('',(-0.0379178548316236,-0.0216286785428537,-0.00257789596899211));
#246=CARTESIAN_POINT('',(-0.037695656669951,-0.0216286785428537,-0.00387969780731946));
#247=CARTESIAN_POINT('',(-0.037695656669951,-0.0256286785428537,-0.00387969780731946));
#248=CARTESIAN_POINT('',(-0.037695656669951,-0.0256286785428537,-0.00387969780731946));
#249=CARTESIAN_POINT('',(-0.0379178548316236,-0.0256286785428537,-0.00257789596899211));
#250=CARTESIAN_POINT('',(-0.0363938548316236,-0.0256286785428537,-0.00410189596899212));
#251=CARTESIAN_POINT('',(-0.0363938548316236,-0.0216286785428537,-0.00410189596899212));
#252=CARTESIAN_POINT('',(-0.0350920529932963,-0.0216286785428537,-0.00432409413066478));
#253=CARTESIAN_POINT('',(-0.0350920529932963,-0.0256286785428537,-0.00432409413066478));
#254=CARTESIAN_POINT('',(-0.0350920529932963,-0.0256286785428537,-0.00432409413066478));
#255=CARTESIAN_POINT('',(-0.0363938548316236,-0.0256286785428537,-0.00410189596899212));
#256=CARTESIAN_POINT('',(0.00148394700670371,-0.0256286785428537,0.0322519058693353));
#257=CARTESIAN_POINT('',(0.00148394700670371,-0.0216286785428537,0.0322519058693353));
#258=CARTESIAN_POINT('',(0.0380599470067037,-0.0216286785428537,0.0688279058693352));
#259=CARTESIAN_POINT('',(0.0380599470067037,-0.0256286785428537,0.0688279058693352));
#260=CARTESIAN_POINT('',(0.0380599470067037,-0.0256286785428537,0.0688279058693352));
#261=CARTESIAN_POINT('',(0.00148394700670371,-0.0256286785428537,0.0322519058693353));
#262=CARTESIAN_POINT('',(0.0350119470067038,-0.0256286785428537,0.0688279058693352));
#263=CARTESIAN_POINT('',(0.0350119470067038,-0.0256286785428537,0.0688279058693352));
#264=CARTESIAN_POINT('',(0.0370119470067038,-0.0256286785428537,0.0688279058693352));
#265=CARTESIAN_POINT('',(0.0350119470067038,-0.0216286785428537,0.0688279058693352));
#266=CARTESIAN_POINT('',(0.0370119470067038,-0.0216286785428537,0.0688279058693352));
#267=CARTESIAN_POINT('',(0.0365359470067037,-0.0256286785428537,0.0703519058693352));
#268=CARTESIAN_POINT('',(0.0365359470067037,-0.0216286785428537,0.0703519058693352));
#269=CARTESIAN_POINT('',(0.0365359470067037,-0.0256286785428537,0.0703519058693352));
#270=CARTESIAN_POINT('',(-0.0350920529932963,-0.0256286785428537,-0.00127609413066476));
#271=CARTESIAN_POINT('',(-0.0350920529932963,-0.0256286785428537,-0.00127609413066476));
#272=CARTESIAN_POINT('',(-0.0330920529932963,-0.0256286785428537,-0.00127609413066476));
#273=CARTESIAN_POINT('',(-0.0350920529932963,-0.0216286785428537,-0.00127609413066476));
#274=CARTESIAN_POINT('',(-0.0330920529932963,-0.0216286785428537,-0.00127609413066476));
#275=CARTESIAN_POINT('',(-4.00529932963051E-5,-0.0256286785428537,0.0337759058693353));
#276=CARTESIAN_POINT('',(-4.00529932963051E-5,-0.0216286785428537,0.0337759058693353));
#277=MECHANICAL_DESIGN_GEOMETRIC_PRESENTATION_REPRESENTATION('',(#166),
#278);
#278=(
GEOMETRIC_REPRESENTATION_CONTEXT(3)
GLOBAL_UNCERTAINTY_ASSIGNED_CONTEXT((#279))
GLOBAL_UNIT_ASSIGNED_CONTEXT((#282,#281,#280))
REPRESENTATION_CONTEXT('Part 1','TOP_LEVEL_ASSEMBLY_PART')
);
#279=UNCERTAINTY_MEASURE_WITH_UNIT(LENGTH_MEASURE(1.E-8),#282,
'DISTANCE_ACCURACY_VALUE','Maximum Tolerance applied to model');
#280=(
NAMED_UNIT(*)
SI_UNIT($,.STERADIAN.)
SOLID_ANGLE_UNIT()
);
#281=(
NAMED_UNIT(*)
PLANE_ANGLE_UNIT()
SI_UNIT($,.RADIAN.)
);
#282=(
LENGTH_UNIT()
NAMED_UNIT(*)
SI_UNIT($,.METRE.)
);
#283=PRODUCT_DEFINITION_SHAPE('','',#284);
#284=PRODUCT_DEFINITION('','',#286,#285);
#285=PRODUCT_DEFINITION_CONTEXT('',#292,'design');
#286=PRODUCT_DEFINITION_FORMATION_WITH_SPECIFIED_SOURCE('','',#288,
 .NOT_KNOWN.);
#287=PRODUCT_RELATED_PRODUCT_CATEGORY('','',(#288));
#288=PRODUCT('Part 1','Part 1','Part 1',(#290));
#289=PRODUCT_CATEGORY('','');
#290=PRODUCT_CONTEXT('',#292,'mechanical');
#291=APPLICATION_PROTOCOL_DEFINITION('international standard',
'ap242_managed_model_based_3d_engineering',2020,#292);
#292=APPLICATION_CONTEXT('managed model based 3d engineering');
ENDSEC;
END-ISO-10303-21;
