ISO-10303-21;
HEADER;
/* Generated by software containing ST-Developer
 * from STEP Tools, Inc. (www.steptools.com) 
 */
/* OPTION: using custom renumber hook */

FILE_DESCRIPTION(
/* description */ ('STEP AP242 Edition 2',
'CAx-IF Rec.Pracs.---Representation and Presentation of Product Manufa
cturing Information (PMI)---4.0---2014-10-13',
'CAx-IF Rec.Pracs.---3D Tessellated Geometry---0.4---2014-09-14','2;1',
'CAx-IF Rec.Pracs.---User Defined Attributes---1.5---2016-08-15'),
/* implementation_level */ '2;1');

FILE_NAME(
/* name */ 'Part Studio 2 - Part 1',
/* time_stamp */ '2026-09-27T12:15:38Z',
/* author */ (''),
/* organization */ (''),
/* preprocessor_version */ 'ST-DEVELOPER v20',
/* originating_system */ 'ONSHAPE BY PTC INC, 1.221',
/* authorisation */ '  ');

FILE_SCHEMA (('AP242_MANAGED_MODEL_BASED_3D_ENGINEERING_MIM_LF { 1 0 10303 442 3 1 4 }'));
ENDSEC;

DATA;
#10=SHAPE_REPRESENTATION_RELATIONSHIP('','',#494,#11);
#11=ADVANCED_BREP_SHAPE_REPRESENTATION('',(#492),#768);
#12=CIRCLE('',#498,0.003048);
#13=CIRCLE('',#499,0.003048);
#14=CIRCLE('',#502,0.003048);
#15=CIRCLE('',#503,0.003048);
#16=CIRCLE('',#506,0.003048);
#17=CIRCLE('',#507,0.003048);
#18=CIRCLE('',#510,0.003048);
#19=CIRCLE('',#511,0.003048);
#20=CYLINDRICAL_SURFACE('',#497,0.003048);
#21=CYLINDRICAL_SURFACE('',#501,0.003048);
#22=CYLINDRICAL_SURFACE('',#505,0.003048);
#23=CYLINDRICAL_SURFACE('',#509,0.003048);
#24=ORIENTED_EDGE('',*,*,#144,.F.);
#25=ORIENTED_EDGE('',*,*,#145,.F.);
#26=ORIENTED_EDGE('',*,*,#146,.T.);
#27=ORIENTED_EDGE('',*,*,#147,.T.);
#28=ORIENTED_EDGE('',*,*,#148,.T.);
#29=ORIENTED_EDGE('',*,*,#149,.F.);
#30=ORIENTED_EDGE('',*,*,#150,.F.);
#31=ORIENTED_EDGE('',*,*,#145,.T.);
#32=ORIENTED_EDGE('',*,*,#151,.F.);
#33=ORIENTED_EDGE('',*,*,#152,.F.);
#34=ORIENTED_EDGE('',*,*,#153,.T.);
#35=ORIENTED_EDGE('',*,*,#149,.T.);
#36=ORIENTED_EDGE('',*,*,#154,.T.);
#37=ORIENTED_EDGE('',*,*,#155,.F.);
#38=ORIENTED_EDGE('',*,*,#156,.F.);
#39=ORIENTED_EDGE('',*,*,#152,.T.);
#40=ORIENTED_EDGE('',*,*,#157,.T.);
#41=ORIENTED_EDGE('',*,*,#158,.F.);
#42=ORIENTED_EDGE('',*,*,#159,.F.);
#43=ORIENTED_EDGE('',*,*,#155,.T.);
#44=ORIENTED_EDGE('',*,*,#160,.T.);
#45=ORIENTED_EDGE('',*,*,#161,.F.);
#46=ORIENTED_EDGE('',*,*,#162,.F.);
#47=ORIENTED_EDGE('',*,*,#158,.T.);
#48=ORIENTED_EDGE('',*,*,#163,.T.);
#49=ORIENTED_EDGE('',*,*,#164,.F.);
#50=ORIENTED_EDGE('',*,*,#165,.F.);
#51=ORIENTED_EDGE('',*,*,#161,.T.);
#52=ORIENTED_EDGE('',*,*,#166,.T.);
#53=ORIENTED_EDGE('',*,*,#147,.F.);
#54=ORIENTED_EDGE('',*,*,#167,.F.);
#55=ORIENTED_EDGE('',*,*,#164,.T.);
#56=ORIENTED_EDGE('',*,*,#168,.F.);
#57=ORIENTED_EDGE('',*,*,#169,.F.);
#58=ORIENTED_EDGE('',*,*,#170,.F.);
#59=ORIENTED_EDGE('',*,*,#171,.F.);
#60=ORIENTED_EDGE('',*,*,#172,.F.);
#61=ORIENTED_EDGE('',*,*,#173,.F.);
#62=ORIENTED_EDGE('',*,*,#174,.F.);
#63=ORIENTED_EDGE('',*,*,#175,.F.);
#64=ORIENTED_EDGE('',*,*,#176,.F.);
#65=ORIENTED_EDGE('',*,*,#177,.F.);
#66=ORIENTED_EDGE('',*,*,#178,.F.);
#67=ORIENTED_EDGE('',*,*,#179,.F.);
#68=ORIENTED_EDGE('',*,*,#146,.F.);
#69=ORIENTED_EDGE('',*,*,#150,.T.);
#70=ORIENTED_EDGE('',*,*,#153,.F.);
#71=ORIENTED_EDGE('',*,*,#156,.T.);
#72=ORIENTED_EDGE('',*,*,#159,.T.);
#73=ORIENTED_EDGE('',*,*,#162,.T.);
#74=ORIENTED_EDGE('',*,*,#165,.T.);
#75=ORIENTED_EDGE('',*,*,#167,.T.);
#76=ORIENTED_EDGE('',*,*,#144,.T.);
#77=ORIENTED_EDGE('',*,*,#166,.F.);
#78=ORIENTED_EDGE('',*,*,#163,.F.);
#79=ORIENTED_EDGE('',*,*,#160,.F.);
#80=ORIENTED_EDGE('',*,*,#157,.F.);
#81=ORIENTED_EDGE('',*,*,#154,.F.);
#82=ORIENTED_EDGE('',*,*,#151,.T.);
#83=ORIENTED_EDGE('',*,*,#148,.F.);
#84=ORIENTED_EDGE('',*,*,#168,.T.);
#85=ORIENTED_EDGE('',*,*,#180,.F.);
#86=ORIENTED_EDGE('',*,*,#181,.F.);
#87=ORIENTED_EDGE('',*,*,#182,.T.);
#88=ORIENTED_EDGE('',*,*,#179,.T.);
#89=ORIENTED_EDGE('',*,*,#183,.F.);
#90=ORIENTED_EDGE('',*,*,#184,.F.);
#91=ORIENTED_EDGE('',*,*,#180,.T.);
#92=ORIENTED_EDGE('',*,*,#178,.T.);
#93=ORIENTED_EDGE('',*,*,#185,.F.);
#94=ORIENTED_EDGE('',*,*,#186,.F.);
#95=ORIENTED_EDGE('',*,*,#183,.T.);
#96=ORIENTED_EDGE('',*,*,#177,.T.);
#97=ORIENTED_EDGE('',*,*,#187,.F.);
#98=ORIENTED_EDGE('',*,*,#188,.F.);
#99=ORIENTED_EDGE('',*,*,#185,.T.);
#100=ORIENTED_EDGE('',*,*,#176,.T.);
#101=ORIENTED_EDGE('',*,*,#189,.F.);
#102=ORIENTED_EDGE('',*,*,#190,.F.);
#103=ORIENTED_EDGE('',*,*,#187,.T.);
#104=ORIENTED_EDGE('',*,*,#175,.T.);
#105=ORIENTED_EDGE('',*,*,#191,.F.);
#106=ORIENTED_EDGE('',*,*,#192,.F.);
#107=ORIENTED_EDGE('',*,*,#189,.T.);
#108=ORIENTED_EDGE('',*,*,#174,.T.);
#109=ORIENTED_EDGE('',*,*,#193,.F.);
#110=ORIENTED_EDGE('',*,*,#194,.F.);
#111=ORIENTED_EDGE('',*,*,#191,.T.);
#112=ORIENTED_EDGE('',*,*,#173,.T.);
#113=ORIENTED_EDGE('',*,*,#195,.F.);
#114=ORIENTED_EDGE('',*,*,#196,.F.);
#115=ORIENTED_EDGE('',*,*,#193,.T.);
#116=ORIENTED_EDGE('',*,*,#172,.T.);
#117=ORIENTED_EDGE('',*,*,#197,.F.);
#118=ORIENTED_EDGE('',*,*,#198,.F.);
#119=ORIENTED_EDGE('',*,*,#195,.T.);
#120=ORIENTED_EDGE('',*,*,#171,.T.);
#121=ORIENTED_EDGE('',*,*,#199,.F.);
#122=ORIENTED_EDGE('',*,*,#200,.F.);
#123=ORIENTED_EDGE('',*,*,#197,.T.);
#124=ORIENTED_EDGE('',*,*,#170,.T.);
#125=ORIENTED_EDGE('',*,*,#201,.F.);
#126=ORIENTED_EDGE('',*,*,#202,.F.);
#127=ORIENTED_EDGE('',*,*,#199,.T.);
#128=ORIENTED_EDGE('',*,*,#169,.T.);
#129=ORIENTED_EDGE('',*,*,#182,.F.);
#130=ORIENTED_EDGE('',*,*,#203,.F.);
#131=ORIENTED_EDGE('',*,*,#201,.T.);
#132=ORIENTED_EDGE('',*,*,#181,.T.);
#133=ORIENTED_EDGE('',*,*,#184,.T.);
#134=ORIENTED_EDGE('',*,*,#186,.T.);
#135=ORIENTED_EDGE('',*,*,#188,.T.);
#136=ORIENTED_EDGE('',*,*,#190,.T.);
#137=ORIENTED_EDGE('',*,*,#192,.T.);
#138=ORIENTED_EDGE('',*,*,#194,.T.);
#139=ORIENTED_EDGE('',*,*,#196,.T.);
#140=ORIENTED_EDGE('',*,*,#198,.T.);
#141=ORIENTED_EDGE('',*,*,#200,.T.);
#142=ORIENTED_EDGE('',*,*,#202,.T.);
#143=ORIENTED_EDGE('',*,*,#203,.T.);
#144=EDGE_CURVE('',#204,#205,#244,.T.);
#145=EDGE_CURVE('',#206,#204,#245,.T.);
#146=EDGE_CURVE('',#206,#207,#246,.T.);
#147=EDGE_CURVE('',#207,#205,#247,.T.);
#148=EDGE_CURVE('',#204,#208,#12,.T.);
#149=EDGE_CURVE('',#209,#208,#248,.T.);
#150=EDGE_CURVE('',#206,#209,#13,.T.);
#151=EDGE_CURVE('',#210,#208,#249,.T.);
#152=EDGE_CURVE('',#211,#210,#250,.T.);
#153=EDGE_CURVE('',#211,#209,#251,.T.);
#154=EDGE_CURVE('',#210,#212,#14,.T.);
#155=EDGE_CURVE('',#213,#212,#252,.T.);
#156=EDGE_CURVE('',#211,#213,#15,.T.);
#157=EDGE_CURVE('',#212,#214,#253,.T.);
#158=EDGE_CURVE('',#215,#214,#254,.T.);
#159=EDGE_CURVE('',#213,#215,#255,.T.);
#160=EDGE_CURVE('',#214,#216,#16,.T.);
#161=EDGE_CURVE('',#217,#216,#256,.T.);
#162=EDGE_CURVE('',#215,#217,#17,.T.);
#163=EDGE_CURVE('',#216,#218,#257,.T.);
#164=EDGE_CURVE('',#219,#218,#258,.T.);
#165=EDGE_CURVE('',#217,#219,#259,.T.);
#166=EDGE_CURVE('',#218,#205,#18,.T.);
#167=EDGE_CURVE('',#219,#207,#19,.T.);
#168=EDGE_CURVE('',#220,#221,#260,.T.);
#169=EDGE_CURVE('',#222,#220,#261,.T.);
#170=EDGE_CURVE('',#223,#222,#262,.T.);
#171=EDGE_CURVE('',#224,#223,#263,.T.);
#172=EDGE_CURVE('',#225,#224,#264,.T.);
#173=EDGE_CURVE('',#226,#225,#265,.T.);
#174=EDGE_CURVE('',#227,#226,#266,.T.);
#175=EDGE_CURVE('',#228,#227,#267,.T.);
#176=EDGE_CURVE('',#229,#228,#268,.T.);
#177=EDGE_CURVE('',#230,#229,#269,.T.);
#178=EDGE_CURVE('',#231,#230,#270,.T.);
#179=EDGE_CURVE('',#221,#231,#271,.T.);
#180=EDGE_CURVE('',#232,#221,#272,.T.);
#181=EDGE_CURVE('',#233,#232,#273,.T.);
#182=EDGE_CURVE('',#233,#220,#274,.T.);
#183=EDGE_CURVE('',#234,#231,#275,.T.);
#184=EDGE_CURVE('',#232,#234,#276,.T.);
#185=EDGE_CURVE('',#235,#230,#277,.T.);
#186=EDGE_CURVE('',#234,#235,#278,.T.);
#187=EDGE_CURVE('',#236,#229,#279,.T.);
#188=EDGE_CURVE('',#235,#236,#280,.T.);
#189=EDGE_CURVE('',#237,#228,#281,.T.);
#190=EDGE_CURVE('',#236,#237,#282,.T.);
#191=EDGE_CURVE('',#238,#227,#283,.T.);
#192=EDGE_CURVE('',#237,#238,#284,.T.);
#193=EDGE_CURVE('',#239,#226,#285,.T.);
#194=EDGE_CURVE('',#238,#239,#286,.T.);
#195=EDGE_CURVE('',#240,#225,#287,.T.);
#196=EDGE_CURVE('',#239,#240,#288,.T.);
#197=EDGE_CURVE('',#241,#224,#289,.T.);
#198=EDGE_CURVE('',#240,#241,#290,.T.);
#199=EDGE_CURVE('',#242,#223,#291,.T.);
#200=EDGE_CURVE('',#241,#242,#292,.T.);
#201=EDGE_CURVE('',#243,#222,#293,.T.);
#202=EDGE_CURVE('',#242,#243,#294,.T.);
#203=EDGE_CURVE('',#243,#233,#295,.T.);
#204=VERTEX_POINT('',#646);
#205=VERTEX_POINT('',#647);
#206=VERTEX_POINT('',#649);
#207=VERTEX_POINT('',#651);
#208=VERTEX_POINT('',#655);
#209=VERTEX_POINT('',#657);
#210=VERTEX_POINT('',#661);
#211=VERTEX_POINT('',#663);
#212=VERTEX_POINT('',#667);
#213=VERTEX_POINT('',#669);
#214=VERTEX_POINT('',#673);
#215=VERTEX_POINT('',#675);
#216=VERTEX_POINT('',#679);
#217=VERTEX_POINT('',#681);
#218=VERTEX_POINT('',#685);
#219=VERTEX_POINT('',#687);
#220=VERTEX_POINT('',#694);
#221=VERTEX_POINT('',#695);
#222=VERTEX_POINT('',#697);
#223=VERTEX_POINT('',#699);
#224=VERTEX_POINT('',#701);
#225=VERTEX_POINT('',#703);
#226=VERTEX_POINT('',#705);
#227=VERTEX_POINT('',#707);
#228=VERTEX_POINT('',#709);
#229=VERTEX_POINT('',#711);
#230=VERTEX_POINT('',#713);
#231=VERTEX_POINT('',#715);
#232=VERTEX_POINT('',#720);
#233=VERTEX_POINT('',#722);
#234=VERTEX_POINT('',#726);
#235=VERTEX_POINT('',#730);
#236=VERTEX_POINT('',#734);
#237=VERTEX_POINT('',#738);
#238=VERTEX_POINT('',#742);
#239=VERTEX_POINT('',#746);
#240=VERTEX_POINT('',#750);
#241=VERTEX_POINT('',#754);
#242=VERTEX_POINT('',#758);
#243=VERTEX_POINT('',#762);
#244=LINE('',#645,#296);
#245=LINE('',#648,#297);
#246=LINE('',#650,#298);
#247=LINE('',#652,#299);
#248=LINE('',#656,#300);
#249=LINE('',#660,#301);
#250=LINE('',#662,#302);
#251=LINE('',#664,#303);
#252=LINE('',#668,#304);
#253=LINE('',#672,#305);
#254=LINE('',#674,#306);
#255=LINE('',#676,#307);
#256=LINE('',#680,#308);
#257=LINE('',#684,#309);
#258=LINE('',#686,#310);
#259=LINE('',#688,#311);
#260=LINE('',#693,#312);
#261=LINE('',#696,#313);
#262=LINE('',#698,#314);
#263=LINE('',#700,#315);
#264=LINE('',#702,#316);
#265=LINE('',#704,#317);
#266=LINE('',#706,#318);
#267=LINE('',#708,#319);
#268=LINE('',#710,#320);
#269=LINE('',#712,#321);
#270=LINE('',#714,#322);
#271=LINE('',#716,#323);
#272=LINE('',#719,#324);
#273=LINE('',#721,#325);
#274=LINE('',#723,#326);
#275=LINE('',#725,#327);
#276=LINE('',#727,#328);
#277=LINE('',#729,#329);
#278=LINE('',#731,#330);
#279=LINE('',#733,#331);
#280=LINE('',#735,#332);
#281=LINE('',#737,#333);
#282=LINE('',#739,#334);
#283=LINE('',#741,#335);
#284=LINE('',#743,#336);
#285=LINE('',#745,#337);
#286=LINE('',#747,#338);
#287=LINE('',#749,#339);
#288=LINE('',#751,#340);
#289=LINE('',#753,#341);
#290=LINE('',#755,#342);
#291=LINE('',#757,#343);
#292=LINE('',#759,#344);
#293=LINE('',#761,#345);
#294=LINE('',#763,#346);
#295=LINE('',#765,#347);
#296=VECTOR('',#531,1.);
#297=VECTOR('',#532,1.);
#298=VECTOR('',#533,1.);
#299=VECTOR('',#534,1.);
#300=VECTOR('',#539,1.);
#301=VECTOR('',#544,1.);
#302=VECTOR('',#545,1.);
#303=VECTOR('',#546,1.);
#304=VECTOR('',#551,1.);
#305=VECTOR('',#556,1.);
#306=VECTOR('',#557,1.);
#307=VECTOR('',#558,1.);
#308=VECTOR('',#563,1.);
#309=VECTOR('',#568,1.);
#310=VECTOR('',#569,1.);
#311=VECTOR('',#570,1.);
#312=VECTOR('',#579,1.);
#313=VECTOR('',#580,1.);
#314=VECTOR('',#581,1.);
#315=VECTOR('',#582,1.);
#316=VECTOR('',#583,1.);
#317=VECTOR('',#584,1.);
#318=VECTOR('',#585,1.);
#319=VECTOR('',#586,1.);
#320=VECTOR('',#587,1.);
#321=VECTOR('',#588,1.);
#322=VECTOR('',#589,1.);
#323=VECTOR('',#590,1.);
#324=VECTOR('',#595,1.);
#325=VECTOR('',#596,1.);
#326=VECTOR('',#597,1.);
#327=VECTOR('',#600,1.);
#328=VECTOR('',#601,1.);
#329=VECTOR('',#604,1.);
#330=VECTOR('',#605,1.);
#331=VECTOR('',#608,1.);
#332=VECTOR('',#609,1.);
#333=VECTOR('',#612,1.);
#334=VECTOR('',#613,1.);
#335=VECTOR('',#616,1.);
#336=VECTOR('',#617,1.);
#337=VECTOR('',#620,1.);
#338=VECTOR('',#621,1.);
#339=VECTOR('',#624,1.);
#340=VECTOR('',#625,1.);
#341=VECTOR('',#628,1.);
#342=VECTOR('',#629,1.);
#343=VECTOR('',#632,1.);
#344=VECTOR('',#633,1.);
#345=VECTOR('',#636,1.);
#346=VECTOR('',#637,1.);
#347=VECTOR('',#640,1.);
#348=EDGE_LOOP('',(#24,#25,#26,#27));
#349=EDGE_LOOP('',(#28,#29,#30,#31));
#350=EDGE_LOOP('',(#32,#33,#34,#35));
#351=EDGE_LOOP('',(#36,#37,#38,#39));
#352=EDGE_LOOP('',(#40,#41,#42,#43));
#353=EDGE_LOOP('',(#44,#45,#46,#47));
#354=EDGE_LOOP('',(#48,#49,#50,#51));
#355=EDGE_LOOP('',(#52,#53,#54,#55));
#356=EDGE_LOOP('',(#56,#57,#58,#59,#60,#61,#62,#63,#64,#65,#66,#67));
#357=EDGE_LOOP('',(#68,#69,#70,#71,#72,#73,#74,#75));
#358=EDGE_LOOP('',(#76,#77,#78,#79,#80,#81,#82,#83));
#359=EDGE_LOOP('',(#84,#85,#86,#87));
#360=EDGE_LOOP('',(#88,#89,#90,#91));
#361=EDGE_LOOP('',(#92,#93,#94,#95));
#362=EDGE_LOOP('',(#96,#97,#98,#99));
#363=EDGE_LOOP('',(#100,#101,#102,#103));
#364=EDGE_LOOP('',(#104,#105,#106,#107));
#365=EDGE_LOOP('',(#108,#109,#110,#111));
#366=EDGE_LOOP('',(#112,#113,#114,#115));
#367=EDGE_LOOP('',(#116,#117,#118,#119));
#368=EDGE_LOOP('',(#120,#121,#122,#123));
#369=EDGE_LOOP('',(#124,#125,#126,#127));
#370=EDGE_LOOP('',(#128,#129,#130,#131));
#371=EDGE_LOOP('',(#132,#133,#134,#135,#136,#137,#138,#139,#140,#141,#142,
#143));
#372=FACE_BOUND('',#348,.T.);
#373=FACE_BOUND('',#349,.T.);
#374=FACE_BOUND('',#350,.T.);
#375=FACE_BOUND('',#351,.T.);
#376=FACE_BOUND('',#352,.T.);
#377=FACE_BOUND('',#353,.T.);
#378=FACE_BOUND('',#354,.T.);
#379=FACE_BOUND('',#355,.T.);
#380=FACE_BOUND('',#356,.T.);
#381=FACE_BOUND('',#357,.T.);
#382=FACE_BOUND('',#358,.T.);
#383=FACE_BOUND('',#359,.T.);
#384=FACE_BOUND('',#360,.T.);
#385=FACE_BOUND('',#361,.T.);
#386=FACE_BOUND('',#362,.T.);
#387=FACE_BOUND('',#363,.T.);
#388=FACE_BOUND('',#364,.T.);
#389=FACE_BOUND('',#365,.T.);
#390=FACE_BOUND('',#366,.T.);
#391=FACE_BOUND('',#367,.T.);
#392=FACE_BOUND('',#368,.T.);
#393=FACE_BOUND('',#369,.T.);
#394=FACE_BOUND('',#370,.T.);
#395=FACE_BOUND('',#371,.T.);
#396=PLANE('',#496);
#397=PLANE('',#500);
#398=PLANE('',#504);
#399=PLANE('',#508);
#400=PLANE('',#512);
#401=PLANE('',#513);
#402=PLANE('',#514);
#403=PLANE('',#515);
#404=PLANE('',#516);
#405=PLANE('',#517);
#406=PLANE('',#518);
#407=PLANE('',#519);
#408=PLANE('',#520);
#409=PLANE('',#521);
#410=PLANE('',#522);
#411=PLANE('',#523);
#412=PLANE('',#524);
#413=PLANE('',#525);
#414=PLANE('',#526);
#415=OVER_RIDING_STYLED_ITEM('',(#449),#423,#447);
#416=OVER_RIDING_STYLED_ITEM('',(#450),#425,#447);
#417=OVER_RIDING_STYLED_ITEM('',(#451),#427,#447);
#418=OVER_RIDING_STYLED_ITEM('',(#452),#429,#447);
#419=OVER_RIDING_STYLED_ITEM('',(#453),#431,#447);
#420=OVER_RIDING_STYLED_ITEM('',(#454),#432,#447);
#421=DRAUGHTING_PRE_DEFINED_COLOUR('red');
#422=DRAUGHTING_PRE_DEFINED_COLOUR('black');
#423=ADVANCED_FACE('Face appearance 3',(#372),#396,.T.);
#424=ADVANCED_FACE('',(#373),#20,.T.);
#425=ADVANCED_FACE('Face appearance 3',(#374),#397,.T.);
#426=ADVANCED_FACE('',(#375),#21,.T.);
#427=ADVANCED_FACE('Face appearance 3',(#376),#398,.F.);
#428=ADVANCED_FACE('',(#377),#22,.T.);
#429=ADVANCED_FACE('Face appearance 3',(#378),#399,.F.);
#430=ADVANCED_FACE('',(#379),#23,.T.);
#431=ADVANCED_FACE('Face appearance 5',(#380,#381),#400,.T.);
#432=ADVANCED_FACE('Face appearance 1',(#382),#401,.F.);
#433=ADVANCED_FACE('',(#383),#402,.F.);
#434=ADVANCED_FACE('',(#384),#403,.F.);
#435=ADVANCED_FACE('',(#385),#404,.F.);
#436=ADVANCED_FACE('',(#386),#405,.F.);
#437=ADVANCED_FACE('',(#387),#406,.F.);
#438=ADVANCED_FACE('',(#388),#407,.F.);
#439=ADVANCED_FACE('',(#389),#408,.F.);
#440=ADVANCED_FACE('',(#390),#409,.F.);
#441=ADVANCED_FACE('',(#391),#410,.F.);
#442=ADVANCED_FACE('',(#392),#411,.F.);
#443=ADVANCED_FACE('',(#393),#412,.F.);
#444=ADVANCED_FACE('',(#394),#413,.F.);
#445=ADVANCED_FACE('',(#395),#414,.T.);
#446=CLOSED_SHELL('',(#423,#424,#425,#426,#427,#428,#429,#430,#431,#432,
#433,#434,#435,#436,#437,#438,#439,#440,#441,#442,#443,#444,#445));
#447=STYLED_ITEM('',(#448),#492);
#448=PRESENTATION_STYLE_ASSIGNMENT((#455));
#449=PRESENTATION_STYLE_ASSIGNMENT((#456));
#450=PRESENTATION_STYLE_ASSIGNMENT((#457));
#451=PRESENTATION_STYLE_ASSIGNMENT((#458));
#452=PRESENTATION_STYLE_ASSIGNMENT((#459));
#453=PRESENTATION_STYLE_ASSIGNMENT((#460));
#454=PRESENTATION_STYLE_ASSIGNMENT((#461));
#455=SURFACE_STYLE_USAGE(.BOTH.,#462);
#456=SURFACE_STYLE_USAGE(.BOTH.,#463);
#457=SURFACE_STYLE_USAGE(.BOTH.,#464);
#458=SURFACE_STYLE_USAGE(.BOTH.,#465);
#459=SURFACE_STYLE_USAGE(.BOTH.,#466);
#460=SURFACE_STYLE_USAGE(.BOTH.,#467);
#461=SURFACE_STYLE_USAGE(.BOTH.,#468);
#462=SURFACE_SIDE_STYLE('',(#469));
#463=SURFACE_SIDE_STYLE('',(#470));
#464=SURFACE_SIDE_STYLE('',(#471));
#465=SURFACE_SIDE_STYLE('',(#472));
#466=SURFACE_SIDE_STYLE('',(#473));
#467=SURFACE_SIDE_STYLE('',(#474));
#468=SURFACE_SIDE_STYLE('',(#475));
#469=SURFACE_STYLE_FILL_AREA(#476);
#470=SURFACE_STYLE_FILL_AREA(#477);
#471=SURFACE_STYLE_FILL_AREA(#478);
#472=SURFACE_STYLE_FILL_AREA(#479);
#473=SURFACE_STYLE_FILL_AREA(#480);
#474=SURFACE_STYLE_FILL_AREA(#481);
#475=SURFACE_STYLE_FILL_AREA(#482);
#476=FILL_AREA_STYLE('',(#483));
#477=FILL_AREA_STYLE('',(#484));
#478=FILL_AREA_STYLE('',(#485));
#479=FILL_AREA_STYLE('',(#486));
#480=FILL_AREA_STYLE('',(#487));
#481=FILL_AREA_STYLE('',(#488));
#482=FILL_AREA_STYLE('',(#489));
#483=FILL_AREA_STYLE_COLOUR('',#490);
#484=FILL_AREA_STYLE_COLOUR('',#421);
#485=FILL_AREA_STYLE_COLOUR('',#421);
#486=FILL_AREA_STYLE_COLOUR('',#421);
#487=FILL_AREA_STYLE_COLOUR('',#421);
#488=FILL_AREA_STYLE_COLOUR('',#491);
#489=FILL_AREA_STYLE_COLOUR('',#422);
#490=COLOUR_RGB('',0.866666666666667,0.32156862745098,0.156862745098039);
#491=COLOUR_RGB('',1.,0.756862745098039,0.0549019607843137);
#492=MANIFOLD_SOLID_BREP('Part 1',#446);
#493=SHAPE_DEFINITION_REPRESENTATION(#773,#494);
#494=SHAPE_REPRESENTATION('Part 1',(#495),#768);
#495=AXIS2_PLACEMENT_3D('',#643,#527,#528);
#496=AXIS2_PLACEMENT_3D('',#644,#529,#530);
#497=AXIS2_PLACEMENT_3D('',#653,#535,#536);
#498=AXIS2_PLACEMENT_3D('',#654,#537,#538);
#499=AXIS2_PLACEMENT_3D('',#658,#540,#541);
#500=AXIS2_PLACEMENT_3D('',#659,#542,#543);
#501=AXIS2_PLACEMENT_3D('',#665,#547,#548);
#502=AXIS2_PLACEMENT_3D('',#666,#549,#550);
#503=AXIS2_PLACEMENT_3D('',#670,#552,#553);
#504=AXIS2_PLACEMENT_3D('',#671,#554,#555);
#505=AXIS2_PLACEMENT_3D('',#677,#559,#560);
#506=AXIS2_PLACEMENT_3D('',#678,#561,#562);
#507=AXIS2_PLACEMENT_3D('',#682,#564,#565);
#508=AXIS2_PLACEMENT_3D('',#683,#566,#567);
#509=AXIS2_PLACEMENT_3D('',#689,#571,#572);
#510=AXIS2_PLACEMENT_3D('',#690,#573,#574);
#511=AXIS2_PLACEMENT_3D('',#691,#575,#576);
#512=AXIS2_PLACEMENT_3D('',#692,#577,#578);
#513=AXIS2_PLACEMENT_3D('',#717,#591,#592);
#514=AXIS2_PLACEMENT_3D('',#718,#593,#594);
#515=AXIS2_PLACEMENT_3D('',#724,#598,#599);
#516=AXIS2_PLACEMENT_3D('',#728,#602,#603);
#517=AXIS2_PLACEMENT_3D('',#732,#606,#607);
#518=AXIS2_PLACEMENT_3D('',#736,#610,#611);
#519=AXIS2_PLACEMENT_3D('',#740,#614,#615);
#520=AXIS2_PLACEMENT_3D('',#744,#618,#619);
#521=AXIS2_PLACEMENT_3D('',#748,#622,#623);
#522=AXIS2_PLACEMENT_3D('',#752,#626,#627);
#523=AXIS2_PLACEMENT_3D('',#756,#630,#631);
#524=AXIS2_PLACEMENT_3D('',#760,#634,#635);
#525=AXIS2_PLACEMENT_3D('',#764,#638,#639);
#526=AXIS2_PLACEMENT_3D('',#766,#641,#642);
#527=DIRECTION('',(0.,0.,1.));
#528=DIRECTION('',(1.,0.,0.));
#529=DIRECTION('',(1.,0.,0.));
#530=DIRECTION('',(0.,0.,-1.));
#531=DIRECTION('',(0.,0.,-1.));
#532=DIRECTION('',(0.,1.,0.));
#533=DIRECTION('',(0.,0.,-1.));
#534=DIRECTION('',(0.,1.,0.));
#535=DIRECTION('',(0.,1.,0.));
#536=DIRECTION('',(0.,0.,1.));
#537=DIRECTION('',(0.,-1.,0.));
#538=DIRECTION('',(1.,0.,0.));
#539=DIRECTION('',(0.,1.,0.));
#540=DIRECTION('',(0.,-1.,0.));
#541=DIRECTION('',(1.,0.,0.));
#542=DIRECTION('',(0.,0.,1.));
#543=DIRECTION('',(1.,0.,0.));
#544=DIRECTION('',(1.,0.,0.));
#545=DIRECTION('',(0.,1.,0.));
#546=DIRECTION('',(1.,0.,0.));
#547=DIRECTION('',(0.,1.,0.));
#548=DIRECTION('',(0.,0.,1.));
#549=DIRECTION('',(0.,-1.,0.));
#550=DIRECTION('',(0.,0.,1.));
#551=DIRECTION('',(0.,1.,0.));
#552=DIRECTION('',(0.,-1.,0.));
#553=DIRECTION('',(0.,0.,1.));
#554=DIRECTION('',(1.,0.,0.));
#555=DIRECTION('',(0.,0.,-1.));
#556=DIRECTION('',(0.,0.,-1.));
#557=DIRECTION('',(0.,1.,0.));
#558=DIRECTION('',(0.,0.,-1.));
#559=DIRECTION('',(0.,1.,0.));
#560=DIRECTION('',(0.,0.,1.));
#561=DIRECTION('',(0.,-1.,0.));
#562=DIRECTION('',(-1.,0.,0.));
#563=DIRECTION('',(0.,1.,0.));
#564=DIRECTION('',(0.,-1.,0.));
#565=DIRECTION('',(-1.,0.,0.));
#566=DIRECTION('',(0.,0.,1.));
#567=DIRECTION('',(1.,0.,0.));
#568=DIRECTION('',(1.,0.,0.));
#569=DIRECTION('',(0.,1.,0.));
#570=DIRECTION('',(1.,0.,0.));
#571=DIRECTION('',(0.,1.,0.));
#572=DIRECTION('',(0.,0.,1.));
#573=DIRECTION('',(0.,-1.,0.));
#574=DIRECTION('',(2.27653999472022E-15,0.,-1.));
#575=DIRECTION('',(0.,-1.,0.));
#576=DIRECTION('',(2.27653999472022E-15,0.,-1.));
#577=DIRECTION('',(0.,-1.,0.));
#578=DIRECTION('',(1.,0.,0.));
#579=DIRECTION('',(0.707106781186547,0.,0.707106781186548));
#580=DIRECTION('',(0.707106781186548,0.,-0.707106781186548));
#581=DIRECTION('',(-0.707106781186547,0.,-0.707106781186548));
#582=DIRECTION('',(0.707106781186548,0.,-0.707106781186547));
#583=DIRECTION('',(-0.707106781186544,0.,-0.707106781186551));
#584=DIRECTION('',(-0.707106781186548,0.,0.707106781186547));
#585=DIRECTION('',(-0.707106781186547,0.,-0.707106781186548));
#586=DIRECTION('',(-0.707106781186549,0.,0.707106781186546));
#587=DIRECTION('',(0.707106781186547,0.,0.707106781186548));
#588=DIRECTION('',(-0.707106781186548,0.,0.707106781186547));
#589=DIRECTION('',(0.707106781186548,0.,0.707106781186547));
#590=DIRECTION('',(0.707106781186548,0.,-0.707106781186547));
#591=DIRECTION('',(0.,-1.,0.));
#592=DIRECTION('',(1.,0.,0.));
#593=DIRECTION('',(-0.707106781186548,0.,0.707106781186547));
#594=DIRECTION('',(0.707106781186547,0.,0.707106781186548));
#595=DIRECTION('',(0.,1.,0.));
#596=DIRECTION('',(0.707106781186547,0.,0.707106781186548));
#597=DIRECTION('',(0.,1.,0.));
#598=DIRECTION('',(0.707106781186547,0.,0.707106781186548));
#599=DIRECTION('',(0.707106781186548,0.,-0.707106781186547));
#600=DIRECTION('',(0.,1.,0.));
#601=DIRECTION('',(0.707106781186548,0.,-0.707106781186547));
#602=DIRECTION('',(-0.707106781186547,0.,0.707106781186548));
#603=DIRECTION('',(0.707106781186548,0.,0.707106781186547));
#604=DIRECTION('',(0.,1.,0.));
#605=DIRECTION('',(0.707106781186548,0.,0.707106781186547));
#606=DIRECTION('',(-0.707106781186547,0.,-0.707106781186548));
#607=DIRECTION('',(-0.707106781186548,0.,0.707106781186547));
#608=DIRECTION('',(0.,1.,0.));
#609=DIRECTION('',(-0.707106781186548,0.,0.707106781186547));
#610=DIRECTION('',(-0.707106781186548,0.,0.707106781186547));
#611=DIRECTION('',(0.707106781186547,0.,0.707106781186548));
#612=DIRECTION('',(0.,1.,0.));
#613=DIRECTION('',(0.707106781186547,0.,0.707106781186548));
#614=DIRECTION('',(-0.707106781186546,0.,-0.707106781186549));
#615=DIRECTION('',(-0.707106781186549,0.,0.707106781186546));
#616=DIRECTION('',(0.,1.,0.));
#617=DIRECTION('',(-0.707106781186549,0.,0.707106781186546));
#618=DIRECTION('',(0.707106781186548,0.,-0.707106781186547));
#619=DIRECTION('',(-0.707106781186547,0.,-0.707106781186548));
#620=DIRECTION('',(0.,1.,0.));
#621=DIRECTION('',(-0.707106781186547,0.,-0.707106781186548));
#622=DIRECTION('',(-0.707106781186547,0.,-0.707106781186548));
#623=DIRECTION('',(-0.707106781186548,0.,0.707106781186547));
#624=DIRECTION('',(0.,1.,0.));
#625=DIRECTION('',(-0.707106781186548,0.,0.707106781186547));
#626=DIRECTION('',(0.707106781186551,0.,-0.707106781186544));
#627=DIRECTION('',(-0.707106781186544,0.,-0.707106781186551));
#628=DIRECTION('',(0.,1.,0.));
#629=DIRECTION('',(-0.707106781186544,0.,-0.707106781186551));
#630=DIRECTION('',(0.707106781186547,0.,0.707106781186548));
#631=DIRECTION('',(0.707106781186548,0.,-0.707106781186547));
#632=DIRECTION('',(0.,1.,0.));
#633=DIRECTION('',(0.707106781186548,0.,-0.707106781186547));
#634=DIRECTION('',(0.707106781186548,0.,-0.707106781186547));
#635=DIRECTION('',(-0.707106781186547,0.,-0.707106781186548));
#636=DIRECTION('',(0.,1.,0.));
#637=DIRECTION('',(-0.707106781186547,0.,-0.707106781186548));
#638=DIRECTION('',(0.707106781186548,0.,0.707106781186548));
#639=DIRECTION('',(0.707106781186548,0.,-0.707106781186548));
#640=DIRECTION('',(0.707106781186548,0.,-0.707106781186548));
#641=DIRECTION('',(0.,-1.,0.));
#642=DIRECTION('',(1.,0.,0.));
#643=CARTESIAN_POINT('',(0.,0.,0.));
#644=CARTESIAN_POINT('',(0.0329499842463791,-0.00762,0.0273594287832616));
#645=CARTESIAN_POINT('',(0.0329499842463791,0.,0.0273594287832616));
#646=CARTESIAN_POINT('',(0.0329499842463791,0.,0.0335786902523182));
#647=CARTESIAN_POINT('',(0.0329499842463791,0.,0.021140167314205));
#648=CARTESIAN_POINT('',(0.0329499842463791,-0.00762,0.0335786902523182));
#649=CARTESIAN_POINT('',(0.0329499842463791,-0.00762,0.0335786902523182));
#650=CARTESIAN_POINT('',(0.0329499842463791,-0.00762,0.0273594287832616));
#651=CARTESIAN_POINT('',(0.0329499842463791,-0.00762,0.021140167314205));
#652=CARTESIAN_POINT('',(0.0329499842463791,-0.00762,0.021140167314205));
#653=CARTESIAN_POINT('',(0.029901984246379,-0.00762,0.0335786902523182));
#654=CARTESIAN_POINT('',(0.029901984246379,0.,0.0335786902523182));
#655=CARTESIAN_POINT('',(0.029901984246379,0.,0.0366266902523182));
#656=CARTESIAN_POINT('',(0.029901984246379,-0.00762,0.0366266902523182));
#657=CARTESIAN_POINT('',(0.029901984246379,-0.00762,0.0366266902523182));
#658=CARTESIAN_POINT('',(0.029901984246379,-0.00762,0.0335786902523182));
#659=CARTESIAN_POINT('',(0.0236827227773224,-0.00762,0.0366266902523182));
#660=CARTESIAN_POINT('',(0.0236827227773224,0.,0.0366266902523182));
#661=CARTESIAN_POINT('',(0.0174634613082658,0.,0.0366266902523181));
#662=CARTESIAN_POINT('',(0.0174634613082658,-0.00762,0.0366266902523181));
#663=CARTESIAN_POINT('',(0.0174634613082658,-0.00762,0.0366266902523181));
#664=CARTESIAN_POINT('',(0.0236827227773224,-0.00762,0.0366266902523182));
#665=CARTESIAN_POINT('',(0.0174634613082658,-0.00762,0.0335786902523181));
#666=CARTESIAN_POINT('',(0.0174634613082658,0.,0.0335786902523181));
#667=CARTESIAN_POINT('',(0.0144154613082659,0.,0.0335786902523181));
#668=CARTESIAN_POINT('',(0.0144154613082659,-0.00762,0.0335786902523181));
#669=CARTESIAN_POINT('',(0.0144154613082659,-0.00762,0.0335786902523181));
#670=CARTESIAN_POINT('',(0.0174634613082658,-0.00762,0.0335786902523181));
#671=CARTESIAN_POINT('',(0.0144154613082659,-0.00762,0.0273594287832616));
#672=CARTESIAN_POINT('',(0.0144154613082659,0.,0.0273594287832616));
#673=CARTESIAN_POINT('',(0.0144154613082659,0.,0.021140167314205));
#674=CARTESIAN_POINT('',(0.0144154613082659,-0.00762,0.021140167314205));
#675=CARTESIAN_POINT('',(0.0144154613082659,-0.00762,0.021140167314205));
#676=CARTESIAN_POINT('',(0.0144154613082659,-0.00762,0.0273594287832616));
#677=CARTESIAN_POINT('',(0.0174634613082658,-0.00762,0.021140167314205));
#678=CARTESIAN_POINT('',(0.0174634613082658,0.,0.021140167314205));
#679=CARTESIAN_POINT('',(0.0174634613082658,0.,0.018092167314205));
#680=CARTESIAN_POINT('',(0.0174634613082658,-0.00762,0.018092167314205));
#681=CARTESIAN_POINT('',(0.0174634613082658,-0.00762,0.018092167314205));
#682=CARTESIAN_POINT('',(0.0174634613082658,-0.00762,0.021140167314205));
#683=CARTESIAN_POINT('',(0.0236827227773224,-0.00762,0.018092167314205));
#684=CARTESIAN_POINT('',(0.0236827227773224,0.,0.018092167314205));
#685=CARTESIAN_POINT('',(0.029901984246379,0.,0.018092167314205));
#686=CARTESIAN_POINT('',(0.029901984246379,-0.00762,0.018092167314205));
#687=CARTESIAN_POINT('',(0.029901984246379,-0.00762,0.018092167314205));
#688=CARTESIAN_POINT('',(0.0236827227773224,-0.00762,0.018092167314205));
#689=CARTESIAN_POINT('',(0.029901984246379,-0.00762,0.021140167314205));
#690=CARTESIAN_POINT('',(0.029901984246379,0.,0.021140167314205));
#691=CARTESIAN_POINT('',(0.029901984246379,-0.00762,0.021140167314205));
#692=CARTESIAN_POINT('',(0.00301800483967418,-0.00762,0.0271009605574449));
#693=CARTESIAN_POINT('',(0.0211554869203728,-0.00762,0.0217841929263119));
#694=CARTESIAN_POINT('',(0.0186282510634231,-0.00762,0.0192569570693623));
#695=CARTESIAN_POINT('',(0.0236827227773224,-0.00762,0.0243114287832616));
#696=CARTESIAN_POINT('',(0.0171042510634231,-0.00762,0.0207809570693623));
#697=CARTESIAN_POINT('',(0.0155802510634231,-0.00762,0.0223049570693622));
#698=CARTESIAN_POINT('',(0.0181074869203727,-0.00762,0.0248321929263119));
#699=CARTESIAN_POINT('',(0.0206347227773225,-0.00762,0.0273594287832616));
#700=CARTESIAN_POINT('',(0.0181074869203727,-0.00762,0.0298866646402113));
#701=CARTESIAN_POINT('',(0.0155802510634231,-0.00762,0.032413900497161));
#702=CARTESIAN_POINT('',(0.0171042510634231,-0.00762,0.033937900497161));
#703=CARTESIAN_POINT('',(0.0186282510634231,-0.00762,0.035461900497161));
#704=CARTESIAN_POINT('',(0.0211554869203728,-0.00762,0.0329346646402113));
#705=CARTESIAN_POINT('',(0.0236827227773224,-0.00762,0.0304074287832616));
#706=CARTESIAN_POINT('',(0.0262099586342722,-0.00762,0.0329346646402113));
#707=CARTESIAN_POINT('',(0.0287371944912218,-0.00762,0.035461900497161));
#708=CARTESIAN_POINT('',(0.0302611944912218,-0.00762,0.033937900497161));
#709=CARTESIAN_POINT('',(0.0317851944912218,-0.00762,0.032413900497161));
#710=CARTESIAN_POINT('',(0.0292579586342722,-0.00762,0.0298866646402113));
#711=CARTESIAN_POINT('',(0.0267307227773225,-0.00762,0.0273594287832616));
#712=CARTESIAN_POINT('',(0.0292579586342722,-0.00762,0.0248321929263119));
#713=CARTESIAN_POINT('',(0.0317851944912218,-0.00762,0.0223049570693622));
#714=CARTESIAN_POINT('',(0.0302611944912218,-0.00762,0.0207809570693623));
#715=CARTESIAN_POINT('',(0.0287371944912218,-0.00762,0.0192569570693623));
#716=CARTESIAN_POINT('',(0.0262099586342722,-0.00762,0.0217841929263119));
#717=CARTESIAN_POINT('',(0.00301800483967418,0.,0.0271009605574449));
#718=CARTESIAN_POINT('',(0.0211554869203728,-0.008128,0.0217841929263119));
#719=CARTESIAN_POINT('',(0.0236827227773224,-0.008128,0.0243114287832616));
#720=CARTESIAN_POINT('',(0.0236827227773224,-0.008128,0.0243114287832616));
#721=CARTESIAN_POINT('',(0.0211554869203728,-0.008128,0.0217841929263119));
#722=CARTESIAN_POINT('',(0.0186282510634231,-0.008128,0.0192569570693623));
#723=CARTESIAN_POINT('',(0.0186282510634231,-0.008128,0.0192569570693623));
#724=CARTESIAN_POINT('',(0.0262099586342722,-0.008128,0.0217841929263119));
#725=CARTESIAN_POINT('',(0.0287371944912218,-0.008128,0.0192569570693623));
#726=CARTESIAN_POINT('',(0.0287371944912218,-0.008128,0.0192569570693623));
#727=CARTESIAN_POINT('',(0.0262099586342722,-0.008128,0.0217841929263119));
#728=CARTESIAN_POINT('',(0.0302611944912218,-0.008128,0.0207809570693623));
#729=CARTESIAN_POINT('',(0.0317851944912218,-0.008128,0.0223049570693622));
#730=CARTESIAN_POINT('',(0.0317851944912218,-0.008128,0.0223049570693622));
#731=CARTESIAN_POINT('',(0.0302611944912218,-0.008128,0.0207809570693623));
#732=CARTESIAN_POINT('',(0.0292579586342722,-0.008128,0.0248321929263119));
#733=CARTESIAN_POINT('',(0.0267307227773225,-0.008128,0.0273594287832616));
#734=CARTESIAN_POINT('',(0.0267307227773225,-0.008128,0.0273594287832616));
#735=CARTESIAN_POINT('',(0.0292579586342722,-0.008128,0.0248321929263119));
#736=CARTESIAN_POINT('',(0.0292579586342722,-0.008128,0.0298866646402113));
#737=CARTESIAN_POINT('',(0.0317851944912218,-0.008128,0.032413900497161));
#738=CARTESIAN_POINT('',(0.0317851944912218,-0.008128,0.032413900497161));
#739=CARTESIAN_POINT('',(0.0292579586342722,-0.008128,0.0298866646402113));
#740=CARTESIAN_POINT('',(0.0302611944912218,-0.008128,0.033937900497161));
#741=CARTESIAN_POINT('',(0.0287371944912218,-0.008128,0.035461900497161));
#742=CARTESIAN_POINT('',(0.0287371944912218,-0.008128,0.035461900497161));
#743=CARTESIAN_POINT('',(0.0302611944912218,-0.008128,0.033937900497161));
#744=CARTESIAN_POINT('',(0.0262099586342722,-0.008128,0.0329346646402113));
#745=CARTESIAN_POINT('',(0.0236827227773224,-0.008128,0.0304074287832616));
#746=CARTESIAN_POINT('',(0.0236827227773224,-0.008128,0.0304074287832616));
#747=CARTESIAN_POINT('',(0.0262099586342722,-0.008128,0.0329346646402113));
#748=CARTESIAN_POINT('',(0.0211554869203728,-0.008128,0.0329346646402113));
#749=CARTESIAN_POINT('',(0.0186282510634231,-0.008128,0.035461900497161));
#750=CARTESIAN_POINT('',(0.0186282510634231,-0.008128,0.035461900497161));
#751=CARTESIAN_POINT('',(0.0211554869203728,-0.008128,0.0329346646402113));
#752=CARTESIAN_POINT('',(0.0171042510634231,-0.008128,0.033937900497161));
#753=CARTESIAN_POINT('',(0.0155802510634231,-0.008128,0.032413900497161));
#754=CARTESIAN_POINT('',(0.0155802510634231,-0.008128,0.032413900497161));
#755=CARTESIAN_POINT('',(0.0171042510634231,-0.008128,0.033937900497161));
#756=CARTESIAN_POINT('',(0.0181074869203727,-0.008128,0.0298866646402113));
#757=CARTESIAN_POINT('',(0.0206347227773225,-0.008128,0.0273594287832616));
#758=CARTESIAN_POINT('',(0.0206347227773225,-0.008128,0.0273594287832616));
#759=CARTESIAN_POINT('',(0.0181074869203727,-0.008128,0.0298866646402113));
#760=CARTESIAN_POINT('',(0.0181074869203727,-0.008128,0.0248321929263119));
#761=CARTESIAN_POINT('',(0.0155802510634231,-0.008128,0.0223049570693622));
#762=CARTESIAN_POINT('',(0.0155802510634231,-0.008128,0.0223049570693622));
#763=CARTESIAN_POINT('',(0.0181074869203727,-0.008128,0.0248321929263119));
#764=CARTESIAN_POINT('',(0.0171042510634231,-0.008128,0.0207809570693623));
#765=CARTESIAN_POINT('',(0.0171042510634231,-0.008128,0.0207809570693623));
#766=CARTESIAN_POINT('',(0.0236827227773224,-0.008128,0.0273594287832616));
#767=MECHANICAL_DESIGN_GEOMETRIC_PRESENTATION_REPRESENTATION('',(#447,#415,
#416,#417,#418,#419,#420),#768);
#768=(
GEOMETRIC_REPRESENTATION_CONTEXT(3)
GLOBAL_UNCERTAINTY_ASSIGNED_CONTEXT((#769))
GLOBAL_UNIT_ASSIGNED_CONTEXT((#772,#771,#770))
REPRESENTATION_CONTEXT('Part 1','TOP_LEVEL_ASSEMBLY_PART')
);
#769=UNCERTAINTY_MEASURE_WITH_UNIT(LENGTH_MEASURE(1.E-8),#772,
'DISTANCE_ACCURACY_VALUE','Maximum Tolerance applied to model');
#770=(
NAMED_UNIT(*)
SI_UNIT($,.STERADIAN.)
SOLID_ANGLE_UNIT()
);
#771=(
NAMED_UNIT(*)
PLANE_ANGLE_UNIT()
SI_UNIT($,.RADIAN.)
);
#772=(
LENGTH_UNIT()
NAMED_UNIT(*)
SI_UNIT($,.METRE.)
);
#773=PRODUCT_DEFINITION_SHAPE('','',#774);
#774=PRODUCT_DEFINITION('','',#776,#775);
#775=PRODUCT_DEFINITION_CONTEXT('',#782,'design');
#776=PRODUCT_DEFINITION_FORMATION_WITH_SPECIFIED_SOURCE('','',#778,
 .NOT_KNOWN.);
#777=PRODUCT_RELATED_PRODUCT_CATEGORY('','',(#778));
#778=PRODUCT('Part 1','Part 1','Part 1',(#780));
#779=PRODUCT_CATEGORY('','');
#780=PRODUCT_CONTEXT('',#782,'mechanical');
#781=APPLICATION_PROTOCOL_DEFINITION('international standard',
'ap242_managed_model_based_3d_engineering',2020,#782);
#782=APPLICATION_CONTEXT('managed model based 3d engineering');
ENDSEC;
END-ISO-10303-21;
